<svg width="253" height="144" viewBox="0 0 253 144" fill="none" xmlns="http://www.w3.org/2000/svg">
<path d="M21.3008 35.481C21.3008 35.4451 21.2739 35.3467 21.2202 35.1855C21.1665 35.0244 21.0859 34.8633 20.9785 34.7021C20.8711 34.5231 20.7368 34.3709 20.5757 34.2456C20.4325 34.1024 20.2713 34.0308 20.0923 34.0308H20.0386C19.3761 34.1024 18.6689 34.3262 17.917 34.7021C17.165 35.0602 16.3683 35.6242 15.5269 36.394C14.6854 37.146 13.7992 38.1217 12.8682 39.3213C11.9372 40.5208 10.9704 41.98 9.96777 43.6987C9.66341 44.2179 9.32324 44.7909 8.94727 45.4175C8.58919 46.0262 8.24007 46.7065 7.8999 47.4585C7.57764 48.1925 7.30013 48.9803 7.06738 49.8218C6.85254 50.6632 6.74512 51.5495 6.74512 52.4805C6.74512 53.0355 6.94206 53.4562 7.33594 53.7427C7.74772 54.0291 8.16846 54.1724 8.59814 54.1724C9.04574 54.1724 9.6276 53.9307 10.3438 53.4473C11.0599 52.946 11.8298 52.2925 12.6533 51.4868C13.4948 50.6632 14.3452 49.7323 15.2046 48.6938C16.0819 47.6375 16.8875 46.5544 17.6216 45.4443C18.3735 44.3343 19.0181 43.2422 19.5552 42.168C20.1102 41.0938 20.4862 40.118 20.6831 39.2407C20.7368 38.9722 20.7995 38.6589 20.8711 38.3008C20.9427 37.9248 21.0054 37.5578 21.0591 37.1997C21.1307 36.8237 21.1844 36.4836 21.2202 36.1792C21.2739 35.8569 21.3008 35.6242 21.3008 35.481ZM42.3018 38.5693C42.3018 39.1781 42.1227 39.8315 41.7646 40.5298C41.4245 41.2101 41.0396 41.8368 40.6099 42.4097C39.4819 43.9315 38.3003 45.328 37.0649 46.5991C35.8475 47.8524 34.6121 49.043 33.3589 50.1709C32.0519 51.3525 30.745 52.2746 29.438 52.937C28.1489 53.5994 26.9852 53.9307 25.9468 53.9307C25.4992 53.9307 25.0516 53.8232 24.604 53.6084C24.1743 53.3936 23.7625 53.116 23.3687 52.7759C22.9927 52.4178 22.6525 52.006 22.3481 51.5405C22.0617 51.075 21.8379 50.5916 21.6768 50.0903C21.5872 49.8218 21.5067 49.5174 21.4351 49.1772C21.3634 48.8192 21.2918 48.4969 21.2202 48.2104C21.1486 47.9061 21.068 47.6554 20.9785 47.4585C20.889 47.2437 20.7905 47.1362 20.6831 47.1362C20.6115 47.1362 20.4593 47.2526 20.2266 47.4854C19.9938 47.7181 19.7163 48.0225 19.394 48.3984C19.0897 48.7565 18.7585 49.1683 18.4004 49.6338C18.0423 50.0814 17.6842 50.52 17.3262 50.9497C16.986 51.3794 16.6727 51.7733 16.3862 52.1313C16.1177 52.4894 15.9028 52.758 15.7417 52.937C15.1867 53.5636 14.5243 54.2082 13.7544 54.8706C13.0024 55.5151 12.2415 56.106 11.4717 56.6431C10.7197 57.1802 10.0215 57.6188 9.37695 57.959C8.75033 58.2992 8.28483 58.4692 7.98047 58.4692C7.30013 58.4692 6.6377 58.3618 5.99316 58.147C5.36654 57.9142 4.81152 57.583 4.32812 57.1533C3.84473 56.7236 3.45085 56.1955 3.14648 55.5688C2.86003 54.9422 2.7168 54.2261 2.7168 53.4204C2.7168 52.0955 2.9764 50.5827 3.49561 48.8818C4.03271 47.181 4.73096 45.4533 5.59033 43.6987C6.46761 41.9442 7.47021 40.2612 8.59814 38.6499C9.72607 37.0207 10.8988 35.6242 12.1162 34.4604C13.5306 33.1177 15.0076 32.133 16.5474 31.5063C18.105 30.8618 19.6984 30.5396 21.3276 30.5396C21.632 30.5396 21.8916 30.6022 22.1064 30.7275C22.3392 30.8529 22.5361 31.014 22.6973 31.2109C22.8584 31.4079 23.0016 31.6317 23.127 31.8823C23.2523 32.1151 23.3776 32.3568 23.5029 32.6074C23.5745 32.7686 23.7267 32.9476 23.9595 33.1445C24.1922 33.3415 24.4339 33.5474 24.6846 33.7622C24.9352 33.9591 25.1501 34.1561 25.3291 34.353C25.526 34.55 25.6245 34.738 25.6245 34.917C25.6245 35.293 25.5439 35.7137 25.3828 36.1792C25.2396 36.6268 25.0785 37.1549 24.8994 37.7637C24.7204 38.3545 24.5503 39.0348 24.3892 39.8047C24.2459 40.5566 24.1743 41.425 24.1743 42.4097C24.1743 43.0542 24.228 43.7882 24.3354 44.6118C24.4608 45.4354 24.6398 46.2231 24.8726 46.9751C25.1232 47.7091 25.4365 48.3268 25.8125 48.8281C26.1885 49.3294 26.6271 49.5801 27.1284 49.5801C27.7371 49.5801 28.3459 49.41 28.9546 49.0698C29.5633 48.7118 30.2616 48.2194 31.0493 47.5928C32.8039 46.1963 34.4689 44.6655 36.0444 43.0005C37.62 41.3354 39.2313 39.6794 40.8784 38.0322C41.1649 37.7458 41.4334 37.6025 41.6841 37.6025C42.0959 37.6025 42.3018 37.9248 42.3018 38.5693ZM89.7554 47.7271C89.7554 47.9598 89.5047 48.2642 89.0034 48.6401C88.52 48.9982 87.8486 49.3563 86.9893 49.7144C86.1299 50.0545 85.1094 50.3499 83.9277 50.6006C82.764 50.8512 81.5018 50.9766 80.1411 50.9766C79.4787 50.9766 78.87 50.9497 78.3149 50.896C77.7778 50.8244 77.2944 50.7528 76.8647 50.6812C76.4351 50.6095 76.0501 50.5469 75.71 50.4932C75.3877 50.4215 75.1102 50.3857 74.8774 50.3857C74.4299 50.3857 74.2061 50.5916 74.2061 51.0034C74.2061 51.272 74.2687 51.639 74.394 52.1045C74.5194 52.5521 74.6626 53.0892 74.8237 53.7158C74.9849 54.3424 75.1281 55.0407 75.2534 55.8105C75.3787 56.5804 75.4414 57.4219 75.4414 58.335C75.4414 59.0869 75.2713 59.8747 74.9312 60.6982C74.591 61.5218 74.0897 62.2738 73.4272 62.9541C72.7827 63.6344 71.9771 64.1984 71.0103 64.646C70.0435 65.0936 68.9424 65.3174 67.707 65.3174C66.2568 65.3174 64.9767 65.0399 63.8667 64.4849C62.7746 63.9478 61.8257 63.1689 61.02 62.1484C60.2144 61.1279 59.543 59.8926 59.0059 58.4424C58.4867 56.9922 58.0659 55.363 57.7437 53.5547C57.7257 53.4473 57.7168 53.2056 57.7168 52.8296C57.7168 52.4536 57.7078 52.0508 57.6899 51.6211C57.672 51.1914 57.6362 50.7886 57.5825 50.4126C57.5288 50.0366 57.4393 49.7949 57.314 49.6875C56.6336 50.6185 55.8459 51.6748 54.9507 52.8564C54.0555 54.0381 53.1245 55.2197 52.1577 56.4014C51.1909 57.583 50.2241 58.702 49.2573 59.7583C48.3084 60.7967 47.4222 61.6471 46.5986 62.3096C46.4912 62.417 46.2495 62.5244 45.8735 62.6318C45.5155 62.7393 45.1216 62.8288 44.6919 62.9004C44.2801 62.9899 43.8862 63.0615 43.5103 63.1152C43.1343 63.1689 42.8836 63.1958 42.7583 63.1958C42.2749 63.1958 41.8184 62.972 41.3887 62.5244C40.9769 62.0947 40.6099 61.5218 40.2876 60.8057C39.9832 60.0895 39.7415 59.2839 39.5625 58.3887C39.4014 57.4935 39.3208 56.5983 39.3208 55.7031C39.3208 54.4141 39.3835 53.0086 39.5088 51.4868C39.6341 49.9471 39.7863 48.4253 39.9653 46.9214C40.1444 45.3996 40.3324 43.9494 40.5293 42.5708C40.7262 41.1922 40.9053 40.0195 41.0664 39.0527C41.1201 38.7842 41.2454 38.4351 41.4424 38.0054C41.6572 37.5757 41.9079 37.1549 42.1943 36.7432C42.4987 36.3314 42.821 35.9823 43.1611 35.6958C43.5192 35.3914 43.8594 35.2393 44.1816 35.2393C44.486 35.2393 44.7546 35.3198 44.9873 35.481C45.238 35.6242 45.4438 35.8032 45.605 36.0181C45.784 36.215 45.9183 36.4209 46.0078 36.6357C46.0973 36.8327 46.1421 36.9938 46.1421 37.1191C46.1421 37.7637 45.9899 38.5514 45.6855 39.4824C45.3991 40.3955 45.0768 41.4429 44.7188 42.6245C44.7008 42.6961 44.6561 42.9468 44.5845 43.3765C44.5308 43.8062 44.4591 44.3522 44.3696 45.0146C44.298 45.6771 44.2174 46.429 44.1279 47.2705C44.0563 48.0941 43.9847 48.9355 43.9131 49.7949C43.8415 50.6543 43.7788 51.5047 43.7251 52.3462C43.6893 53.1698 43.6714 53.9128 43.6714 54.5752C43.6714 55.3809 43.7161 56.097 43.8057 56.7236C43.8952 57.3324 44.0563 57.8068 44.2891 58.147C44.8978 58.0754 45.5155 57.8247 46.1421 57.395C46.7866 56.9474 47.4312 56.3745 48.0757 55.6763C48.7202 54.978 49.3647 54.1903 50.0093 53.313C50.6538 52.4178 51.2894 51.4958 51.916 50.5469C52.5605 49.598 53.1872 48.6401 53.7959 47.6733C54.4046 46.7065 55.0044 45.7935 55.5952 44.9341C55.7563 44.7013 55.9354 44.4059 56.1323 44.0479C56.3293 43.6719 56.571 43.3228 56.8574 43.0005C57.1439 42.6603 57.4751 42.3739 57.8511 42.1411C58.245 41.8905 58.7104 41.7651 59.2476 41.7651C59.4266 41.7651 59.6146 41.8368 59.8115 41.98C60.0264 42.1053 60.2144 42.2933 60.3755 42.5439C60.5545 42.7946 60.6978 43.099 60.8052 43.457C60.9126 43.7972 60.9663 44.1732 60.9663 44.585V46.5723C60.9663 47.0378 60.9663 47.4943 60.9663 47.9419C60.9663 48.3716 60.9842 48.7118 61.02 48.9624C61.0916 49.5711 61.1812 50.3052 61.2886 51.1646C61.396 52.0239 61.5482 52.9191 61.7451 53.8501C61.9421 54.7811 62.1927 55.7031 62.4971 56.6162C62.8014 57.5293 63.1864 58.3529 63.6519 59.0869C64.1353 59.8031 64.6992 60.3849 65.3438 60.8325C65.9883 61.2801 66.7581 61.5039 67.6533 61.5039C68.1725 61.5039 68.6828 61.3875 69.1841 61.1548C69.6854 60.922 70.133 60.6177 70.5269 60.2417C70.9386 59.8657 71.2609 59.445 71.4937 58.9795C71.7443 58.4961 71.8696 58.0127 71.8696 57.5293C71.8696 57.1891 71.8428 56.7863 71.7891 56.3208C71.7354 55.8553 71.6727 55.3988 71.6011 54.9512C71.5295 54.5036 71.4578 54.0918 71.3862 53.7158C71.3146 53.3219 71.252 53.0355 71.1982 52.8564C70.8939 51.6569 70.5985 50.6453 70.312 49.8218C70.0435 48.9803 69.9092 48.2642 69.9092 47.6733C69.9092 47.5122 69.9629 47.3242 70.0703 47.1094C70.1777 46.8945 70.312 46.6886 70.4731 46.4917C70.6343 46.2769 70.8133 46.1068 71.0103 45.9814C71.2072 45.8382 71.3862 45.7666 71.5474 45.7666C71.6548 45.7666 71.8786 45.8203 72.2188 45.9277C72.5768 46.0173 72.9976 46.1336 73.481 46.2769C73.9823 46.4201 74.5194 46.5723 75.0923 46.7334C75.6831 46.8945 76.2739 47.0467 76.8647 47.1899C77.4556 47.3332 78.0195 47.4585 78.5566 47.5659C79.0938 47.6554 79.5592 47.7002 79.9531 47.7002C80.6156 47.7002 81.278 47.6733 81.9404 47.6196C82.6208 47.5659 83.2743 47.4943 83.9009 47.4048C84.5275 47.3153 85.1094 47.2168 85.6465 47.1094C86.2015 46.984 86.6759 46.8587 87.0698 46.7334C87.3026 46.6439 87.5622 46.5544 87.8486 46.4648C88.153 46.3753 88.4305 46.3306 88.6812 46.3306C88.9855 46.3306 89.2362 46.429 89.4331 46.626C89.6479 46.805 89.7554 47.172 89.7554 47.7271ZM118.867 41.4697C118.867 41.7383 118.67 42.2127 118.276 42.8931C117.345 44.2358 116.298 45.5786 115.134 46.9214C113.988 48.2642 112.762 49.5443 111.455 50.7617C110.166 51.9613 108.814 53.0892 107.399 54.1455C106.003 55.1839 104.589 56.0881 103.156 56.8579C101.724 57.6099 100.292 58.1917 98.8594 58.6035C97.445 59.0153 96.0754 59.2122 94.7505 59.1943C91.8859 59.1943 89.6569 58.3618 88.0635 56.6968C86.488 55.0317 85.7002 52.5163 85.7002 49.1504C85.7002 46.3395 86.1299 43.6092 86.9893 40.9595C87.8665 38.3097 89.3525 35.7585 91.4473 33.3057C91.8411 32.876 92.2798 32.4642 92.7632 32.0703C93.2645 31.6764 93.7837 31.3273 94.3208 31.0229C94.8758 30.7186 95.4398 30.4769 96.0127 30.2979C96.6035 30.1188 97.1943 30.0114 97.7852 29.9756C97.9284 29.9756 98.1253 29.9935 98.376 30.0293C98.6266 30.0651 98.8952 30.1278 99.1816 30.2173C99.4681 30.3068 99.7456 30.4232 100.014 30.5664C100.283 30.6917 100.498 30.8529 100.659 31.0498C101.16 31.6227 101.554 32.2135 101.84 32.8223C102.145 33.431 102.315 34.1024 102.351 34.8364C102.386 35.66 102.288 36.4746 102.055 37.2803C101.84 38.068 101.464 38.8826 100.927 39.7241C100.408 40.5477 99.7188 41.4071 98.8594 42.3022C98 43.1795 96.9616 44.1284 95.7441 45.1489C94.9743 45.7935 94.1149 46.5096 93.166 47.2974C92.235 48.0672 91.1071 48.8818 89.7822 49.7412C89.7822 51.4779 90.3014 52.8027 91.3398 53.7158C92.3962 54.611 93.8374 55.0586 95.6636 55.0586C96.6841 55.0586 97.7135 54.9243 98.752 54.6558C99.7904 54.3872 100.811 54.0381 101.813 53.6084C102.816 53.1608 103.783 52.6595 104.714 52.1045C105.663 51.5316 106.549 50.9497 107.373 50.3589C108.894 49.2489 110.273 48.1478 111.508 47.0557C112.744 45.9456 113.97 44.7819 115.188 43.5645L116.638 42.1143C117.515 41.3444 118.151 40.9595 118.544 40.9595C118.759 40.9595 118.867 41.1296 118.867 41.4697ZM98.3491 36.1255C98.3312 35.8569 98.2865 35.5973 98.2148 35.3467C98.1611 35.0781 98.0716 34.8454 97.9463 34.6484C97.821 34.4515 97.6777 34.2993 97.5166 34.1919C97.3555 34.0666 97.1675 34.0039 96.9526 34.0039C96.0037 34.0576 95.0549 34.6395 94.106 35.7495C93.1571 36.8416 92.2619 38.2918 91.4204 40.1001C91.2235 40.494 91.0444 40.9416 90.8833 41.4429C90.7401 41.9263 90.5968 42.4276 90.4536 42.9468C90.3283 43.4481 90.2119 43.9494 90.1045 44.4507C90.015 44.952 89.9344 45.3996 89.8628 45.7935C90.7938 45.0952 91.6532 44.4507 92.4409 43.8599C93.2287 43.269 93.9627 42.6603 94.6431 42.0337C95.0728 41.6398 95.5114 41.2191 95.959 40.7715C96.4066 40.306 96.8094 39.8226 97.1675 39.3213C97.5435 38.82 97.8389 38.3008 98.0537 37.7637C98.2686 37.2266 98.367 36.6805 98.3491 36.1255ZM142.714 40.5835C142.714 40.87 142.634 41.1922 142.473 41.5503C142.312 41.8905 142.097 42.2485 141.828 42.6245C141.56 43.0005 141.255 43.3854 140.915 43.7793C140.575 44.1553 140.235 44.5312 139.895 44.9072C139.626 45.2116 139.34 45.5249 139.035 45.8472C138.731 46.1515 138.382 46.5007 137.988 46.8945C137.612 47.2705 137.164 47.7181 136.645 48.2373C136.126 48.7386 135.517 49.3294 134.819 50.0098C134.192 50.6185 133.494 51.263 132.724 51.9434C131.972 52.6058 131.202 53.2593 130.415 53.9038C129.645 54.5483 128.893 55.166 128.159 55.7568C127.425 56.3477 126.789 56.8669 126.252 57.3145C124.963 58.3708 123.736 59.3644 122.573 60.2954C121.409 61.2443 120.263 62.0947 119.135 62.8467C116.897 64.3506 115.125 65.1025 113.818 65.1025C113.37 65.1025 112.851 64.9862 112.26 64.7534C111.652 64.5207 111.347 64.1984 111.347 63.7866C111.347 62.6229 111.786 61.7098 112.663 61.0474C113.522 60.4207 114.865 59.7404 116.691 59.0063C118.482 58.2902 119.825 57.592 120.72 56.9116C121.615 56.2313 122.062 55.3003 122.062 54.1187C122.062 53.5278 121.445 52.3283 120.209 50.52C119.601 49.6069 119.055 48.7744 118.571 48.0225C118.106 47.2526 117.703 46.5633 117.363 45.9546C116.682 44.7013 116.342 43.3854 116.342 42.0068C116.342 40.8073 116.566 39.5451 117.014 38.2202C117.229 37.4683 117.569 36.7163 118.034 35.9644C118.518 35.1945 119.037 34.5142 119.592 33.9233C120.147 33.3146 120.711 32.8312 121.284 32.4731C121.857 32.1151 122.358 31.945 122.788 31.9629C124.363 31.9629 125.151 32.8939 125.151 34.7559C125.151 35.472 124.891 36.1702 124.372 36.8506C124.121 37.1729 123.817 37.513 123.459 37.8711C123.101 38.2113 122.689 38.5783 122.224 38.9722C121.776 39.3481 121.391 39.6794 121.069 39.9658C120.764 40.2523 120.514 40.494 120.317 40.6909C120.317 41.6219 120.603 42.714 121.176 43.9673C121.481 44.576 121.83 45.2384 122.224 45.9546C122.618 46.6707 123.074 47.4406 123.593 48.2642C124.112 49.0877 124.551 49.8307 124.909 50.4932C125.267 51.1377 125.536 51.6121 125.715 51.9165C125.733 51.9881 125.831 52.0239 126.01 52.0239C126.261 52.0239 126.691 51.8449 127.299 51.4868C127.926 51.1108 128.66 50.6185 129.501 50.0098C130.361 49.3831 131.292 48.667 132.294 47.8613C133.297 47.0378 134.3 46.1694 135.302 45.2563C136.341 44.3254 137.2 43.5107 137.88 42.8125C138.561 42.1143 139.205 41.4608 139.814 40.8521C140.423 40.2433 140.87 39.7778 141.157 39.4556C141.461 39.1154 141.631 38.9453 141.667 38.9453C141.81 38.9453 141.944 38.999 142.07 39.1064C142.195 39.2139 142.303 39.3571 142.392 39.5361C142.5 39.6973 142.58 39.8763 142.634 40.0732C142.688 40.2523 142.714 40.4224 142.714 40.5835ZM174.699 36.3135C174.699 36.6178 174.592 36.9491 174.377 37.3071C174.162 37.6652 173.885 38.0322 173.544 38.4082C173.204 38.7663 172.819 39.1243 172.39 39.4824C171.96 39.8226 171.53 40.1449 171.101 40.4492C170.671 40.7357 170.259 40.9953 169.865 41.228C169.489 41.4429 169.176 41.604 168.925 41.7114C168.46 41.9084 167.842 42.0874 167.072 42.2485C166.32 42.3918 165.533 42.5171 164.709 42.6245C163.885 42.7319 163.08 42.8215 162.292 42.8931C161.504 42.9468 160.842 42.9736 160.305 42.9736C160.09 42.9736 159.794 42.9378 159.418 42.8662C159.042 42.7946 158.658 42.7051 158.264 42.5977C157.87 42.4902 157.494 42.3739 157.136 42.2485C156.796 42.1053 156.545 41.9621 156.384 41.8188C156.545 42.4992 156.688 43.1885 156.813 43.8867C156.939 44.5671 157.001 45.2743 157.001 46.0083C157.001 46.3306 156.957 46.7244 156.867 47.1899C156.796 47.6554 156.688 48.1299 156.545 48.6133C156.42 49.0788 156.276 49.5353 156.115 49.9829C155.954 50.4126 155.784 50.7707 155.605 51.0571C155.139 51.8449 154.656 52.561 154.155 53.2056C153.671 53.8501 153.116 54.4499 152.49 55.0049C151.881 55.542 151.192 56.0522 150.422 56.5356C149.652 57.019 148.766 57.4845 147.763 57.9321C146.689 58.3976 145.606 58.7288 144.514 58.9258C143.439 59.1048 142.32 59.1943 141.157 59.1943C140.423 59.1943 139.769 58.9795 139.196 58.5498C138.623 58.1201 138.14 57.5472 137.746 56.8311C137.352 56.097 137.048 55.2555 136.833 54.3066C136.636 53.3577 136.538 52.3641 136.538 51.3257C136.538 51.0571 136.556 50.7259 136.591 50.332C136.645 49.9382 136.708 49.5353 136.779 49.1235C136.869 48.7118 136.958 48.3179 137.048 47.9419C137.137 47.5659 137.227 47.2437 137.316 46.9751C137.567 46.2231 137.925 45.3638 138.391 44.397C138.856 43.4302 139.402 42.4455 140.029 41.4429C140.655 40.4224 141.354 39.4287 142.124 38.4619C142.893 37.4772 143.699 36.5999 144.541 35.8301C145.382 35.0602 146.259 34.4425 147.172 33.9771C148.085 33.5116 148.999 33.2788 149.912 33.2788C150.216 33.2788 150.458 33.3236 150.637 33.4131C150.834 33.5026 150.995 33.619 151.12 33.7622C151.263 33.9054 151.389 34.0576 151.496 34.2188C151.604 34.3799 151.729 34.541 151.872 34.7021C151.926 34.7917 152.006 34.8364 152.114 34.8364C152.257 34.8364 152.436 34.8006 152.651 34.729C152.866 34.6574 153.107 34.6216 153.376 34.6216C153.716 34.6216 154.137 34.8454 154.638 35.293C155.139 35.7227 155.659 36.2061 156.196 36.7432C156.751 37.2624 157.297 37.7458 157.834 38.1934C158.389 38.623 158.881 38.8379 159.311 38.8379C159.794 38.8379 160.314 38.8289 160.869 38.811C161.424 38.7931 161.988 38.7663 162.561 38.7305C163.133 38.6768 163.697 38.6141 164.252 38.5425C164.807 38.4709 165.318 38.3903 165.783 38.3008C165.909 38.265 166.204 38.1844 166.669 38.0591C167.135 37.9338 167.672 37.7905 168.281 37.6294C168.907 37.4504 169.561 37.2624 170.241 37.0654C170.939 36.8685 171.584 36.6895 172.175 36.5283C172.766 36.3493 173.249 36.2061 173.625 36.0986C174.019 35.9912 174.234 35.9375 174.27 35.9375C174.377 35.9375 174.475 35.9644 174.565 36.0181C174.654 36.0718 174.699 36.1702 174.699 36.3135ZM153.752 40.6104C153.645 40.2523 153.43 39.9032 153.107 39.563C152.803 39.2228 152.445 38.9185 152.033 38.6499C151.639 38.3813 151.219 38.1665 150.771 38.0054C150.323 37.8263 149.903 37.7368 149.509 37.7368C149.187 37.7368 148.873 37.7905 148.569 37.8979C148.264 38.0054 147.96 38.1486 147.656 38.3276C147.369 38.4888 147.092 38.6768 146.823 38.8916C146.555 39.0885 146.304 39.2765 146.071 39.4556C145.373 40.0464 144.702 40.8789 144.057 41.9531C143.431 43.0094 142.875 44.1553 142.392 45.3906C141.927 46.6081 141.551 47.8255 141.264 49.043C140.978 50.2604 140.834 51.3167 140.834 52.2119C140.834 52.6058 140.897 52.9907 141.022 53.3667C141.166 53.7248 141.363 54.047 141.613 54.3335C141.864 54.6021 142.159 54.8258 142.5 55.0049C142.84 55.166 143.216 55.2466 143.627 55.2466C144.702 55.2466 145.695 55.0586 146.608 54.6826C147.521 54.2887 148.345 53.7606 149.079 53.0981C149.831 52.4178 150.493 51.6121 151.066 50.6812C151.639 49.7502 152.123 48.7476 152.517 47.6733C152.91 46.5812 153.206 45.4354 153.403 44.2358C153.618 43.0363 153.734 41.8278 153.752 40.6104ZM228.007 48.9087C228.007 49.0698 227.918 49.2936 227.739 49.5801C227.578 49.8486 227.372 50.1351 227.121 50.4395C226.888 50.7259 226.62 51.0034 226.315 51.272C226.029 51.5405 225.769 51.7464 225.537 51.8896C223.693 52.9997 221.974 53.859 220.38 54.4678C218.805 55.0586 217.176 55.354 215.493 55.354C214.58 55.354 213.765 55.175 213.049 54.8169C212.351 54.4588 211.733 53.9307 211.196 53.2324C210.659 52.5342 210.184 51.6748 209.772 50.6543C209.379 49.6338 209.029 48.4611 208.725 47.1362C208.564 46.4201 208.412 45.686 208.269 44.9341C208.125 44.1821 207.973 43.5018 207.812 42.8931C207.651 42.2664 207.463 41.7562 207.248 41.3623C207.033 40.9505 206.765 40.7446 206.442 40.7446C205.69 40.7446 204.849 41.3981 203.918 42.7051C202.987 44.012 201.787 45.9546 200.319 48.5327C198.869 51.1108 197.643 53.0713 196.64 54.4141C195.638 55.7568 194.724 56.4282 193.901 56.4282C192.666 56.4282 191.833 55.8464 191.403 54.6826C191.009 53.501 190.768 51.5226 190.678 48.7476C190.66 47.6554 190.598 46.6976 190.49 45.874C190.383 45.0326 190.249 44.3164 190.087 43.7256C189.926 43.1348 189.729 42.6514 189.497 42.2754C189.282 41.8815 189.058 41.5771 188.825 41.3623C187.912 41.9173 187.035 42.6424 186.193 43.5376C185.37 44.4328 184.591 45.3906 183.857 46.4111C183.123 47.4316 182.434 48.4611 181.789 49.4995C181.162 50.5379 180.598 51.4868 180.097 52.3462C179.847 52.7759 179.56 53.2682 179.238 53.8232C178.916 54.3783 178.584 54.9422 178.244 55.5151C177.922 56.0701 177.6 56.5983 177.277 57.0996C176.973 57.6009 176.704 58.0127 176.472 58.335C175.952 59.0869 175.326 59.4629 174.592 59.4629C173.231 59.4629 172.336 58.7646 171.906 57.3682C171.799 57.0101 171.709 56.6878 171.638 56.4014C171.566 56.1149 171.503 55.8285 171.45 55.542C171.414 55.2555 171.378 54.9512 171.342 54.6289C171.324 54.2887 171.315 53.9038 171.315 53.4741C171.315 52.758 171.351 51.9971 171.423 51.1914C171.494 50.3857 171.584 49.5711 171.691 48.7476C171.817 47.924 171.951 47.1004 172.094 46.2769C172.255 45.4354 172.408 44.6208 172.551 43.833C172.855 42.2933 173.097 40.8968 173.276 39.6436C173.455 38.3903 173.544 37.1997 173.544 36.0718C173.544 35.6421 173.67 35.284 173.92 34.9976C174.171 34.6932 174.52 34.541 174.968 34.541C176.758 34.541 177.653 35.7674 177.653 38.2202C177.653 38.8647 177.6 39.563 177.492 40.3149C177.403 41.0669 177.277 41.8547 177.116 42.6782C176.973 43.4839 176.812 44.3075 176.633 45.1489C176.454 45.9725 176.284 46.7871 176.123 47.5928C176.033 48.0762 175.944 48.5954 175.854 49.1504C175.764 49.6875 175.675 50.2067 175.585 50.708C175.514 51.1914 175.451 51.63 175.397 52.0239C175.344 52.3999 175.317 52.6774 175.317 52.8564C175.55 52.6237 175.836 52.2835 176.176 51.8359C176.534 51.3883 176.919 50.8602 177.331 50.2515C177.743 49.6427 178.181 48.9714 178.647 48.2373C179.13 47.5033 179.614 46.7424 180.097 45.9546C181.1 44.3791 182.031 42.9915 182.89 41.792C183.767 40.5745 184.582 39.5361 185.334 38.6768C186.838 36.9759 188.458 36.1255 190.195 36.1255C190.625 36.1255 191 36.2508 191.323 36.5015C191.645 36.7521 191.923 37.0833 192.155 37.4951C192.388 37.9069 192.585 38.3724 192.746 38.8916C192.907 39.4108 193.042 39.939 193.149 40.4761C193.328 41.3892 193.498 42.4007 193.659 43.5107C193.838 44.6208 194.008 45.6592 194.169 46.626C194.348 47.5928 194.528 48.4074 194.707 49.0698C194.903 49.7144 195.127 50.0366 195.378 50.0366C195.575 50.0366 195.808 49.8934 196.076 49.6069C196.363 49.3026 196.649 48.9266 196.936 48.479C197.24 48.0135 197.544 47.4943 197.849 46.9214C198.171 46.3485 198.475 45.7935 198.762 45.2563C199.048 44.7013 199.308 44.1911 199.541 43.7256C199.791 43.2601 199.988 42.8931 200.131 42.6245C200.525 41.9263 200.982 41.1654 201.501 40.3418C202.02 39.5003 202.575 38.7215 203.166 38.0054C203.775 37.2713 204.428 36.6626 205.126 36.1792C205.825 35.6958 206.559 35.4541 207.329 35.4541C208.134 35.4541 208.761 35.6421 209.208 36.0181C209.656 36.3761 210.023 36.9222 210.31 37.6562C210.614 38.3724 210.874 39.2765 211.088 40.3687C211.321 41.4608 211.608 42.7319 211.948 44.1821C212.503 46.5454 213.103 48.3089 213.747 49.4727C214.392 50.6364 215.242 51.2183 216.298 51.2183C216.961 51.2183 217.632 51.1735 218.312 51.084C219.011 50.9945 219.736 50.8512 220.488 50.6543C221.24 50.4395 222.028 50.1619 222.851 49.8218C223.693 49.4637 224.588 49.0161 225.537 48.479C225.608 48.4432 225.716 48.3895 225.859 48.3179C226.02 48.2284 226.181 48.1478 226.342 48.0762C226.521 47.9867 226.682 47.915 226.826 47.8613C226.969 47.8076 227.067 47.7808 227.121 47.7808C227.193 47.7808 227.273 47.8166 227.363 47.8882C227.47 47.9598 227.569 48.0583 227.658 48.1836C227.748 48.291 227.828 48.4163 227.9 48.5596C227.972 48.6849 228.007 48.8013 228.007 48.9087ZM240.227 35.1855C240.227 34.9886 240.173 34.8096 240.065 34.6484C239.958 34.4873 239.824 34.353 239.663 34.2456C239.519 34.1382 239.358 34.0576 239.179 34.0039C239.018 33.9323 238.875 33.8965 238.75 33.8965C237.962 33.8965 237.156 34.1829 236.333 34.7559C235.509 35.3109 234.739 36.0897 234.023 37.0923C233.307 38.0949 232.68 39.2855 232.143 40.6641C231.606 42.0426 231.239 43.5376 231.042 45.1489C231.293 44.9878 231.624 44.755 232.036 44.4507C232.447 44.1463 232.886 43.8151 233.352 43.457C233.835 43.0811 234.309 42.7051 234.775 42.3291C235.258 41.9531 235.688 41.604 236.064 41.2817C236.888 40.5835 237.568 39.9658 238.105 39.4287C238.642 38.8737 239.063 38.3724 239.367 37.9248C239.689 37.4593 239.913 37.0117 240.039 36.582C240.164 36.1344 240.227 35.6689 240.227 35.1855ZM252.688 46.6528C252.688 47.2795 252.455 47.9598 251.989 48.6938C251.524 49.4279 250.861 50.2515 250.002 51.1646C249.017 52.203 247.934 53.1698 246.752 54.0649C245.571 54.9422 244.353 55.7121 243.1 56.3745C241.847 57.019 240.576 57.5293 239.287 57.9053C237.998 58.2812 236.753 58.4692 235.554 58.4692C232.743 58.4692 230.568 57.5651 229.028 55.7568C227.488 53.9486 226.718 51.2988 226.718 47.8076C226.718 46.6976 226.817 45.5697 227.014 44.4238C227.211 43.2601 227.497 42.1143 227.873 40.9863C228.267 39.8584 228.75 38.7663 229.323 37.71C229.914 36.6536 230.594 35.6689 231.364 34.7559C231.848 34.2008 232.385 33.6369 232.976 33.064C233.566 32.491 234.22 31.9808 234.936 31.5332C235.652 31.0677 236.431 30.6917 237.272 30.4053C238.132 30.1188 239.063 29.9756 240.065 29.9756C240.782 29.9756 241.426 30.1188 241.999 30.4053C242.572 30.6738 243.055 31.0229 243.449 31.4526C243.843 31.8823 244.139 32.3657 244.335 32.9028C244.55 33.4399 244.658 33.9681 244.658 34.4873C244.658 35.5794 244.362 36.6895 243.771 37.8174C243.181 38.9274 242.348 40.0553 241.274 41.2012C240.2 42.3291 238.911 43.466 237.407 44.6118C235.903 45.7397 234.229 46.8677 232.385 47.9956C232.134 48.1388 231.883 48.3 231.633 48.479C231.382 48.6401 231.257 48.846 231.257 49.0967C231.257 49.6338 231.328 50.1978 231.472 50.7886C231.615 51.3794 231.875 51.9255 232.25 52.4268C232.626 52.9102 233.128 53.313 233.754 53.6353C234.399 53.9575 235.214 54.1187 236.198 54.1187C237.451 54.1187 238.723 53.9217 240.012 53.5278C241.319 53.116 242.59 52.5521 243.825 51.8359C245.078 51.1198 246.287 50.2694 247.451 49.2847C248.632 48.3 249.733 47.2347 250.754 46.0889C251.327 45.4622 251.783 45.1489 252.124 45.1489C252.32 45.1489 252.464 45.2653 252.553 45.498C252.643 45.7308 252.688 46.1157 252.688 46.6528Z" fill="white"/>
<g clip-path="url(#clip0_214_2)">
<path d="M127.3 59.2C127.2 59.1 127.4 59 127.5 59C127.6 59.3 127.3 59.3 127.3 59.2Z" fill="white"/>
<path d="M128 61.8002L128.1 61.7002L128 62.2002V61.8002Z" fill="white"/>
<path d="M128.9 64C128.5 63.9 128.6 63.2 128.4 62.8H128.3L128.5 62.5C128.6 63 128.7 63.7 128.9 64Z" fill="white"/>
<path d="M130.1 65.0002C129.9 65.0002 130.1 65.3002 130 64.7002C130 64.7002 130 64.7002 130.1 64.7002C130 64.8002 130 64.9002 130.1 65.0002Z" fill="white"/>
<path d="M130 64.8002C129.9 64.5002 130.2 64.9002 130 64.8002V64.8002Z" fill="white"/>
<path d="M130.3 65.9V65.5C130.4 65.5 130.5 65.8 130.5 65.7C130.6 66.1 130.5 66 130.3 65.9Z" fill="white"/>
<path d="M130.2 65.7002V66.1002C130.1 66.1002 130 66.1002 130.2 65.9002C130.1 66.0002 130.1 65.9002 130.2 65.7002Z" fill="white"/>
<path d="M130 65.4998C129.9 65.2998 129.7 65.0998 129.7 65.4998C129.6 64.8998 129.9 64.8998 130 65.4998Z" fill="white"/>
<path d="M128.6 64.2999L128.4 64.0999V63.8999C128.5 63.9999 128.7 64.2999 128.6 64.2999Z" fill="white"/>
<path d="M131.1 67.9C131 67.9 130.9 67.8 130.8 67.8V67.5C130.9 67.7 131 67.9 131.1 67.9Z" fill="white"/>
<path d="M130.8 67.7998V68.1998C130.7 67.8998 130.7 67.7998 130.8 67.7998Z" fill="white"/>
<path d="M129.8 66.4998L129.9 65.7998L129.8 66.5998V66.4998Z" fill="white"/>
<path d="M131.5 69.2L131.6 69L131.5 69.4V69.2Z" fill="white"/>
<path d="M131.7 70.1998C131.8 69.9998 132 70.3998 132 70.1998C132 70.4998 132 70.6998 131.9 70.8998C131.9 70.5998 131.9 70.3998 131.7 70.1998Z" fill="white"/>
<path d="M131.9 71.1998C131.9 71.0998 131.9 70.9998 132 70.7998C131.9 70.9998 131.9 71.0998 131.9 71.1998Z" fill="white"/>
<path d="M131 68.7998C131.1 68.7998 131.2 68.7998 131.3 68.9998L131 68.8998C131 68.8998 131 68.8998 131 68.7998Z" fill="white"/>
<path d="M131 68.8999C131.1 69.0999 131.1 69.1999 131.1 69.1999C131.1 69.1999 131.1 69.0999 131 68.8999Z" fill="white"/>
<path d="M130.3 67.2998C130.3 67.4998 130.3 67.9998 130 67.5998C130 67.4998 130.2 67.6998 130.3 67.2998Z" fill="white"/>
<path d="M130.7 68.7002L130.5 68.3002C130.6 68.3002 130.7 68.3002 130.7 68.2002V68.7002Z" fill="white"/>
<path d="M130.6 68.9002L130.7 68.7002V68.8002L130.6 68.9002Z" fill="white"/>
<path d="M131.5 70.5998C131.4 70.7998 131.5 70.9998 131.5 71.1998C131.4 70.9998 131.3 70.7998 131.3 70.5998C131.4 70.4998 131.5 70.3998 131.5 70.5998Z" fill="white"/>
<path d="M131.3 70.5001C131.2 70.3001 131.2 70.2001 131.3 70.1001C131.3 70.3001 131.3 70.4001 131.3 70.5001C131.3 70.5001 131.3 70.6001 131.3 70.5001Z" fill="white"/>
<path d="M131.9 71.8C131.8 71.7 131.8 71.6 131.7 71.5C131.8 71.6 131.9 71.8 131.9 71.8Z" fill="white"/>
<path d="M131.3 69.8999C131.3 69.9999 131.3 70.0999 131.2 70.1999C131.2 69.9999 131.2 69.8999 131.3 69.8999C131.3 69.7999 131.3 69.8999 131.3 69.8999Z" fill="white"/>
<path d="M130.7 74.0999C130.9 73.9999 131 73.5999 130.7 73.1999C130.8 72.7999 131.5 72.8999 131.9 73.1999C131.8 73.1999 131.7 73.1999 131.7 73.5999C131.6 73.4999 131.3 72.7999 131.2 73.1999C131.2 73.6999 131.3 73.5999 131.5 73.7999C131.2 73.5999 131.3 74.4999 130.9 74.3999V73.8999C130.8 73.9999 130.8 74.1999 130.7 74.0999Z" fill="white"/>
<path d="M131.7 72.4998V72.2998C131.8 72.4998 131.9 72.5998 132.1 72.7998C132.1 73.0998 132 73.0998 131.9 73.1998L131.7 72.4998Z" fill="white"/>
<path d="M131.6 71.6002C131.4 71.8002 131.4 72.2002 131.1 72.0002C131 71.5002 131.2 71.6002 131.2 71.4002C131.4 72.1002 131.3 71.1002 131.6 71.6002C131.6 71.4002 131.6 71.3002 131.5 71.2002C131.6 71.3002 131.6 71.4002 131.7 71.6002C131.7 71.5002 131.6 71.5002 131.6 71.6002C131.6 71.5002 131.6 71.6002 131.6 71.6002C131.7 71.8002 131.6 71.6002 131.6 71.6002C131.7 71.5002 131.7 71.5002 131.7 71.5002C131.7 71.8002 131.7 72.0002 131.7 72.3002C131.7 72.1002 131.6 71.9002 131.6 71.6002Z" fill="white"/>
<path d="M129.8 68.5001C129.8 68.4001 129.9 68.4001 129.8 68.2001C129.7 68.1001 129.7 68.2001 129.6 68.2001C129.6 68.1001 129.6 67.8001 129.8 68.1001V68.2001C130 68.5001 130.3 68.8001 130.3 68.7001C130.2 68.6001 130 68.6001 129.8 68.5001Z" fill="white"/>
<path d="M130.7 70V70.6L130.4 70.3H130.5C130.4 70.1 130.6 70.1 130.7 70Z" fill="white"/>
<path d="M132.1 73.3001L132.3 73.1001L132 73.5001L132.1 73.3001Z" fill="white"/>
<path d="M132.2 74.1L132.4 74L132.3 74.2L132.2 74.1Z" fill="white"/>
<path d="M118.3 116L118.1 116.1C118.2 116 118.3 116 118.3 116Z" fill="white"/>
<path d="M131.7 94.2002C131.8 94.5002 132 94.9002 131.8 94.8002L131.6 94.7002C131.8 94.5002 131.8 94.3002 131.7 94.2002Z" fill="white"/>
<path d="M125.9 106.6C126 106.5 126.1 106.5 126.1 106.4C126 106.5 126 106.6 125.9 106.6Z" fill="white"/>
<path d="M125 106.4V106.8C124.9 106.6 125 106.5 125 106.4Z" fill="white"/>
<path d="M113.4 121.1H113.1C113.4 120.9 113.3 121 113.4 121.1Z" fill="white"/>
<path d="M132.9 82.5C133 82.7 133 82.9 133 83.1C132.9 82.8 132.7 82.6 132.9 82.5Z" fill="white"/>
<path d="M120.4 117C120.3 117.1 120.2 117.1 120.2 117C120.3 117 120.4 117 120.4 117Z" fill="white"/>
<path d="M133 83.7V83.6C133 83.4 133.1 83.3 133.1 83C133.1 83.3 133.1 83.5 133 83.7Z" fill="white"/>
<path d="M87.3 142.1C87.4 142.1 87.5 142 87.6 142C87.5 142 87.5 142.1 87.3 142.1Z" fill="white"/>
<path d="M132.7 77.2998C132.7 77.1998 132.8 77.2998 132.7 77.2998V77.2998Z" fill="white"/>
<path d="M131.8 76.6001C131.8 76.6001 131.7 76.7001 131.8 76.6001C131.7 76.7001 131.8 76.6001 131.8 76.6001Z" fill="white"/>
<path d="M132.6 77.1001C132.6 77.2001 132.7 77.2001 132.7 77.3001C132.7 77.3001 132.6 77.2001 132.6 77.1001Z" fill="white"/>
<path d="M104.9 129.5C104.7 129.6 104.7 129.5 104.9 129.5V129.5Z" fill="white"/>
<path d="M128.4 97.8999H128.5V97.9999L128.4 97.8999Z" fill="white"/>
<path d="M128.1 98.5C128.4 98.3 128.5 98.2 128.5 98L129 98.4L128.1 98.5Z" fill="white"/>
<path d="M116.3 118.3L116.4 117.9C115.8 118.1 115.6 118.4 115.7 117.9C116.3 118.3 116.8 116.7 117.4 117.1L117.5 116.8C117.5 116.9 117.4 116.9 117.4 116.9C117.5 116.3 118 116.9 118.4 116.3C118.5 116.1 118.5 115.9 118.4 116L118.9 115.7C119 115.6 118.9 115.5 118.8 115.7L119.4 115.1C119.6 115.1 119.9 115 120 114.9C120.1 114.7 119.9 114.9 119.8 114.8C119.9 114.7 120.1 114.6 120.2 114.5C120.2 114.2 119.8 114.5 119.6 114.7C119.3 114 120 114.5 120.2 113.5L119.9 113.8C119.8 113.3 120.1 113.2 120.1 112.6C120.1 112.8 120 113.7 120.5 113.4C120.5 113.3 120.6 113.1 120.9 113C120.7 112.9 120.9 112.7 121.1 112.4L120.8 112.2C121.1 112 121.2 112.1 121.4 112C121.6 111.7 121.4 111.5 121.3 111.3C121.6 110.8 121.4 111.9 121.9 111.3C122.1 110.8 122.4 110.5 122.9 110.1C123 109.7 122.7 110.1 122.7 109.9L123.1 109.8C123.1 109.7 123.1 109.7 123 109.7C123.2 109.5 123.3 109.8 123.6 109.5C124 109.6 123.6 108.5 124.2 108.2C124.2 108 124 108.2 123.9 108.1C124.5 107.6 124.4 107.6 125 107.3L125.1 106.7C125.1 107.2 125.6 106.9 126 106.6C126 106.8 126.1 106.9 126.1 107L126.6 106.5C126.6 106.4 126.5 106.4 126.3 106.5L126.4 106.4C126.4 106.1 126.2 106.2 125.9 106.2C125.9 106.3 125.9 106.4 126 106.5C125.7 106.6 125.5 106.6 125.3 106.5C125.4 106.5 125.4 106.4 125.5 106.3C125.4 106.3 125.4 106.3 125.4 106.3C125.4 106.3 125.5 106.2 125.6 106.2L125.4 105.9H125.5L125.7 105C126.3 104.6 127 104.3 127.6 103.4C127.3 103.5 127.2 103.3 126.9 103.2C127.1 103.6 126.5 103.9 126.3 104.4C126.4 104.1 126.2 104.1 126.1 104.2L126.7 103.5C126.5 103.4 126.6 103.2 126.6 103C127 103.4 127.2 102.5 127.5 102.2C127.4 102.1 127.2 102.1 127 102.6C126.9 102 127.8 102.2 127.7 101.6C127.7 101.7 127.7 101.8 127.6 101.8C127.9 101.6 128 101 127.8 101.1V101.2C128 100.5 128.5 99.1 129 99.1C129 99.1 128.5 99 128.4 99C129 98.7 129.6 98.5 130.2 98.2C129.8 98.2 129.1 97.5 128.7 98C128.7 97.8 128.7 97.6 128.9 97.3C128.9 97.4 129.3 97.7 129.4 97.6C129.1 97 129.3 97.2 129.1 96.6C129.1 96.8 129.7 96.8 129.8 96.5C129.7 96.5 129.3 96.3 129.2 96.4L129.9 95.9C129.8 96 129.4 95.8 129.3 95.6C129.4 95.7 129.5 95 129.6 94.8V95.1C129.7 94.3 130.5 94.5 130.7 93.7C130.6 93.8 130 93.8 130 93.4C130.3 93.3 131.5 92.9 131.9 92.2L131.8 92C131.9 91.8 132 91.7 132.1 91.5C131.6 91.8 130.5 92.6 130.1 93C130 92.7 129.9 92.9 130 92.4C129.9 92.2 129.7 92.6 129.7 92.7L129.8 91.7C130.1 91.8 130.3 91 130.5 91.1C130.3 91.5 130.2 91.8 130 92.2C130.3 92.3 131.1 91.7 131.1 91C131 90.8 130.5 91.1 130.4 91C130.5 90.9 130.7 90.3 130.6 90.3L130.4 90.6C130.3 90.2 130.9 90 130.7 89.5C130.7 89.3 130.3 88.9 130.5 88.9C130.8 89.2 132 89.4 132.3 89.3C132.3 89.2 132 88.3 131.9 88.1C131.6 87.8 131.2 88.5 130.9 88.2C131 88.2 131.1 88.1 131.2 88C131.1 87.8 130.9 88 131 87.7C131.3 87.7 131 86.9 131.3 87.5C131.4 87.1 131.3 87.1 131.3 86.6C131.5 86.8 132.1 86.2 132.2 85.8C132.1 85.8 132 85.7 132 85.7C132 84.9 131.8 84.5 131.8 83.7C131.7 83.6 131.6 83.3 131.5 83.4C131.6 83.3 131.7 83.2 131.7 83C131.4 82.6 131.6 83.5 131.3 83.2C131.5 83.2 131.6 82.6 131.7 82.3C132 82.4 131.8 83.1 131.6 83.4C132 83.4 132.5 82.8 132.6 82C132.7 81.4 132.3 81.7 132.4 81.6C132.3 80.4 133.1 80.6 132.7 79.6C132.4 79.2 132.2 79.6 132 79.6C132 80.1 132.2 80.4 132.2 80.7L131.7 80C131.6 80.2 131.6 80.5 131.6 80.7C131.4 80.4 131.4 78.7 131.1 77.9C131.2 77.7 131.2 77.4 131.4 77.6V77.9C131.6 78.1 131.6 77.3 131.8 77.7C131.9 77.3 132.1 76.8 131.9 76.3L131.6 76.2C131.7 76.2 131.8 76.5 131.8 76.7C131.9 76.5 131.3 75.9 131.6 75.6L131.9 75.9C132 75.5 132.3 75 132.1 74.5C132.4 74.7 132.1 74.6 132.5 74.9C132 74.7 132.7 76.1 132.2 75.7C132.7 76 132.5 76.3 132.9 76.7C132.8 76.7 132.7 76.6 132.8 77L132.7 77.1C132.6 77 132.6 76.9 132.5 76.9C132.3 77.1 132.4 77.8 132.3 78C132.4 78.2 132.4 77.9 132.5 78L132.4 78.3C132.6 78.3 132.8 78.9 132.9 78.3L133 78.8C133.2 79.1 133.3 79.5 133.2 79.8C133.3 80 133 80.4 133.1 80.2L133 81H133.1C133.2 81.8 132.8 82.6 133.2 83.6C133.1 83.9 133.1 84.1 133.1 84.6L133.3 84.7C133.2 85 133.5 85.7 133.2 85.9C133.7 86.3 133.2 87.6 133.2 88.2H132.9C132.9 88.6 132.8 89 132.6 89.5L132.4 89.4C132.2 89.8 132.4 90.6 132.3 91.3C132.4 91.3 132.4 91.1 132.4 91C132.8 91.9 131.7 92.7 132 93.5C131.9 93.7 131.9 93.8 131.9 94C131.9 94 131.9 94 131.9 94.1C131.9 94.2 131.9 94.3 132 94.4C132 94.3 131.9 94.2 131.9 94.2C131.9 94.3 131.8 94.6 131.7 94.8L131.9 94.9C131.9 95.1 131.8 95 131.6 94.9C131.5 95 131.5 95.1 131.4 95.1C131.7 95.4 131.1 95.6 131.5 95.9C131.3 96 131.1 96.9 130.6 96.9C130.7 96.9 130.7 97 130.7 96.9C130.7 97.1 130.7 97.4 130.5 97.6L130.8 97.8L130 98C130.1 98.4 130.1 98.5 130.5 98.3C129.9 98.9 130.2 98.9 129.6 99.4H129.8C129.7 99.6 129.3 99.9 129.5 100.1C129.6 100.4 129.4 101 129.2 101.7C128.9 102.4 128.6 103.2 128.5 103.9C128.1 103.4 128.5 104.6 128.1 104.4C128.2 104.5 128.2 104.7 128.4 104.6C128 105.2 128.2 105.6 127.6 105.9C127.7 106 127.8 105.9 127.9 106C127.8 106 127.7 106.1 127.7 106.2C127.7 106.3 127.9 106.2 128 106.1C127.7 106.7 127.2 106.6 126.9 106.5C126.9 106.9 126.8 107 126.5 107.2C126.6 107.4 126.6 107.6 126.8 107.3C126.7 107.5 126.3 108.7 126 108.6C126 108.7 125.9 108.9 125.8 108.9C125.5 109.4 125.5 109.4 125.2 109.9V109.7C124.8 109.7 124.9 110 124.6 110.4C124.3 111.4 124.3 110.7 124 111.7L123.8 111.5C123.3 111.3 123.6 112.4 123.1 112.8V112.6C122.8 112.8 123.2 113.7 123 114C123 114.1 123.1 114 123.2 113.9C123 114.7 122.9 113.8 122.5 114.3C122.6 114.5 122.9 114.4 122.7 114.8C122.7 115.1 121.6 115.5 121.5 116.1C121.5 115.9 121.4 115.7 121.2 115.9C120.9 116.2 120.8 117.1 120.3 117.2C120.3 117.3 120.3 117.3 120.3 117.3C120 117.5 119.5 118 119.2 118C119.6 118.8 117.6 119.3 118.2 119.8L117.5 120.5H117.6C117.2 121 116.9 121.1 116.6 121.1C116.5 121.2 116.7 121.2 116.7 121.2C116.2 122 116.1 122 115.3 122.4L115.4 122.6C115.2 122.7 114.7 123.8 113.8 124.3C113.8 124.3 113.9 124.3 114 124.3C113 124.8 112.6 126.5 111.7 126.1C111.5 126.2 111.3 126.3 111 126.4C111.6 125.8 110.6 126.2 110.8 125.8C110.5 126 110.3 126.6 110.6 126.3V126.2C111 126.5 109.9 127 110.1 127.3C109.4 127.9 108.8 128.4 108.2 129C107.6 129.6 107 130.2 106.3 130.7L106.2 130.3L105.8 130.7C105.7 130.9 105.8 131 106.1 130.8C106.1 131.1 105.4 131.1 105.4 131C104.8 131.6 105.9 131.2 105.7 131.3L105.4 131.5V131.4C105.1 131.4 105 131.3 104.6 131.6C104.4 131.8 104.6 131.9 104.5 132C104.5 132 104.5 132.1 104.4 132.1L103.8 132.6L103.9 132.2C103.6 132.3 103.4 132.6 103.4 132.2C103.3 132.5 102.8 133 102.3 133.4C101.8 133.8 101.2 134.1 101.1 134.2C100.6 134.3 100.2 134.5 99.8001 134.8C99.9001 134.7 99.8001 134.4 99.4001 134.6C99.9001 135.1 98.8001 135.3 98.8001 135.9C98.9001 135.4 97.6001 136.6 97.8001 135.9C97.5001 136.2 97.9001 136.1 97.7001 136.4C96.8001 136.6 96.0001 137.5 95.0001 138C94.9001 137.9 95.0001 137.7 94.8001 137.7L94.5001 138.4C94.3001 138.5 94.1001 138.1 93.9001 138.5C93.9001 138.4 93.9001 138.3 93.8001 138.3C92.0001 140 89.5001 140.3 87.8001 142.1C88.0001 141.8 87.8001 141.9 87.6001 142C87.7001 141.9 87.5001 141.8 87.5001 141.7L86.8001 142.4C86.5001 142.2 85.9001 142.9 85.6001 142.6L85.9001 142.5C85.4001 142.4 86.0001 141.5 85.8001 141.1C86.4001 141.3 86.6001 140 87.5001 140.2C87.6001 140 87.3001 140.1 87.3001 140C87.6001 140.1 87.8001 140 88.1001 139.8H88.0001C89.1001 139.3 89.4001 138.9 90.5001 138.2V138.5C90.7001 138.3 90.7001 138.2 90.8001 138.1C91.3001 138.3 90.1001 138.5 90.6001 138.7C90.7001 138.1 92.3001 137.7 92.3001 137.1C92.7001 136.9 92.3001 137.4 92.7001 137.2V137H93.0001C93.2001 136.8 93.3001 136.6 93.2001 136.5C93.1001 136.5 93.0001 136.6 92.9001 136.6C93.1001 136.3 93.8001 136.1 93.9001 136L93.6001 136.3C94.7001 135.8 95.9001 135 97.0001 134.6V134.7C97.8001 134.4 97.5001 134.2 98.4001 133.8C98.6001 133.8 98.9001 133.7 99.1001 133.5C98.8001 133.5 99.3001 133 99.0001 133.1C99.9001 132.8 99.5001 133 100.2 133V132.8C100.5 132.8 100.5 132.9 101 132.7C100.6 132.8 101.1 132.3 100.6 132.4C101.2 131.5 102.1 131.9 102.1 131.1C102.8 131.2 101.6 131.8 101.8 131.8C101.7 132.1 102.3 131.9 102.6 131.7C102.9 131.5 102.7 130.8 103.3 130.4C103.2 130.4 103.2 130.4 103.1 130.5C103.3 130.2 103.7 130.3 103.9 129.9C104.3 130 104.3 129.6 104.6 129.9L103.9 130.3C104.3 130.1 104.9 130.3 105.3 129.7C105.2 129.7 105 129.7 104.8 129.7C104.9 129.5 105.2 129.5 105.3 129.3C105 129 104.5 129.8 104 129.8C104.1 129.5 104.9 129.5 104.4 129.3C105 129.5 105 128.8 105.7 128.8L105.5 128.6C105.6 128.6 105.8 128.6 105.9 128.5L105.5 128.4C106 128.3 106 127.7 106.4 127.5C105.7 128.1 106.4 127.9 106.2 128.2C107.2 127.7 106.3 127.3 107.3 126.6C107.2 126.7 106.9 127.1 107.2 127C107.3 126.8 107.5 126.5 107.6 126.4C108.3 125.9 107.7 126.7 108 126.6C108 126.2 108.4 126.4 108.7 126.3L108.5 126.1C109.1 125.4 109 126.3 109.5 125.6H109L109.4 125.4L109.2 125.3C109.7 125.2 109.8 125 110.1 124.6C110.1 124.8 110.4 124.9 110.7 124.6C110.8 124.3 110.4 124.5 110.9 124.2C110.7 124.2 110.5 124.1 110.4 124.5C110.3 124.5 110.2 124.5 110.1 124.4C110.2 124.1 110.6 123.9 110.8 123.7C110.7 123.8 110.7 123.8 110.7 123.9L111.5 123.6C111.5 123.4 111.4 123.5 111.3 123.5C111.4 123.4 111.6 123.4 111.8 123.2C111.6 123.1 111.5 122.9 111.2 123.1L111.9 122.7C111.9 122.6 112 122.3 111.9 122.3C112.1 121.9 113 121.8 113.3 121.3C113.3 121.3 113.4 121.3 113.5 121.2C113.8 120.8 114 120.2 114.6 120V119.5C115 119.2 114.6 120.2 115.3 119.6C115.8 119.2 115.2 119.2 115.3 119C115.6 118.9 116.3 118.8 116.4 118.2C116.5 118.1 116.4 118.2 116.3 118.3ZM120.4 113.5C120.3 113.6 120 113.7 120.1 113.8C120.4 113.9 120.3 113.7 120.4 113.5ZM125.9 105.6C125.8 105.6 125.8 105.8 125.8 106C125.8 105.8 125.9 105.7 125.9 105.6ZM132.7 79.3C132.8 79.6 132.8 79.5 132.7 79.3V79.3ZM132.6 78.7C132.6 78.6 132.6 78.6 132.6 78.7C132.6 78.7 132.6 78.8 132.7 79C132.6 78.9 132.5 78.9 132.6 78.7ZM104.4 131.9L104.5 131.8C104.2 131.8 104.3 131.9 104.4 131.9Z" fill="white"/>
<path d="M125.1 106.4L125.2 106.5C125.1 106.5 125.1 106.5 125.1 106.4Z" fill="white"/>
<path d="M130.5 87.6001C130.5 87.7001 130.6 87.8001 130.6 87.8001C130.6 87.9001 130.5 87.8001 130.5 87.6001Z" fill="white"/>
<path d="M132.6 75.5V75.9C132.6 75.7 132.5 75.7 132.5 75.6C132.5 75.6 132.6 75.7 132.6 75.5Z" fill="white"/>
<path d="M130.6 72.5999C130.6 72.4999 130.6 72.4999 130.6 72.3999H130.7C130.7 72.5999 130.7 72.7999 130.6 72.5999Z" fill="white"/>
<path d="M131.8 75.2999C131.6 75.2999 131.6 75.0999 131.6 74.7999C131.9 74.6999 131.8 74.9999 131.8 75.2999Z" fill="white"/>
<path d="M131.6 74.6999C131.6 74.5999 131.6 74.4999 131.6 74.4999C131.7 74.3999 131.6 74.5999 131.6 74.6999Z" fill="white"/>
<path d="M132.6 77.9C132.5 77.8 132.9 77.8 132.8 77.7C133 77.6 132.5 78.6 132.6 77.9Z" fill="white"/>
<path d="M131.1 75.2002H131.3L131.2 75.4002L131.1 75.2002Z" fill="white"/>
<path d="M131.5 77.2002C131.5 77.1002 131.4 76.9002 131.4 76.8002L131.5 76.7002C131.5 76.9002 131.6 77.2002 131.5 77.2002Z" fill="white"/>
<path d="M131.1 75.7998V75.8998L131.2 76.1998L131.1 75.7998Z" fill="white"/>
<path d="M131.9 81.6999L131.8 82.1999C131.7 82.1999 131.7 82.0999 131.7 81.9999C131.8 81.7999 131.8 81.5999 131.9 81.6999Z" fill="white"/>
<path d="M131.2 80.2998C131.3 80.3998 131.3 80.3998 131.4 80.4998H131.1L131.2 80.2998Z" fill="white"/>
<path d="M131.1 81.5999C131 81.5999 130.9 82.2999 130.9 81.6999C131 81.6999 131 81.1999 131.1 81.5999Z" fill="white"/>
<path d="M131.3 88.3998V88.2998L131.8 88.3998H131.3Z" fill="white"/>
<path d="M129.1 94.0001C129.1 93.5001 129.4 93.9001 129.4 93.5001C129.5 93.4001 129.4 93.9001 129.6 93.8001C129.4 94.1001 129.4 94.3001 129.1 94.0001Z" fill="white"/>
<path d="M129.6 93.8002L129.7 93.7002C129.6 93.7002 129.6 93.8002 129.6 93.8002Z" fill="white"/>
<path d="M86.3 143L86 143.2L86.2 143H86.3Z" fill="white"/>
<path d="M85.5 142.9L85.6 143.2L85.3 143C85.4 143.1 85.5 143 85.5 142.9Z" fill="white"/>
<path d="M120.4 112.4C120.5 112.5 120.5 112.6 120.4 112.7V112.4Z" fill="white"/>
<path d="M117.8 116.1H117.9L118 116.4L117.8 116.1Z" fill="white"/>
<path d="M115 118.8C115.1 118.7 115.3 118.6 115.4 118.5C115.1 118.6 115.3 119 115 118.8Z" fill="white"/>
<path d="M100.1 141.1L100.2 140.9C100.1 140.9 100.1 141.2 100.1 141.1Z" fill="white"/>
<path d="M99.2001 141.4V141.3L99.1001 141.5L99.2001 141.4Z" fill="white"/>
<path d="M98.5 141.2C98.5 141.6 98.8 141.2 98.9 141.4V141.5L99 141.2C98.8 141.2 98.6 141.3 98.5 141.2Z" fill="white"/>
<path d="M98.3 140.3C98.2 140.5 98.1 140.4 98.3 140.3C98.3 140.4 98.3 140.4 98.3 140.3C98.3 140.4 98.3 140.4 98.3 140.3Z" fill="white"/>
<path d="M98.3 140.4C98.4 140.4 98.3 140.2 98.3 140.4V140.4Z" fill="white"/>
<path d="M98 140.4L98.1 140.3C98.1 140.2 98 140.2 98.1 140.1C97.9 140.1 97.9 140.2 98 140.4Z" fill="white"/>
<path d="M97.8 140.6C97.9 140.5 97.9 140.5 97.8 140.6V140.6Z" fill="white"/>
<path d="M98 140.5L97.9 140.6C97.9 140.6 97.8 140.7 98 140.5C97.9 140.6 97.9 140.5 98 140.5Z" fill="white"/>
<path d="M98.1001 140.5C98.1001 140.6 98.2001 140.7 98.1001 140.8C98.2001 140.8 98.3001 140.5 98.1001 140.5Z" fill="white"/>
<path d="M98.3999 141.5V141.6L98.4999 141.5C98.3999 141.6 98.3999 141.4 98.3999 141.5Z" fill="white"/>
<path d="M97.3 140.1C97.3 140.2 97.3 140.3 97.3 140.4L97.4 140.3C97.4 140.2 97.3 140.2 97.3 140.1Z" fill="white"/>
<path d="M97.3 140.4L97.2 140.5C97.3 140.5 97.3 140.4 97.3 140.4Z" fill="white"/>
<path d="M97.7 141L97.9 140.8L97.7 141Z" fill="white"/>
<path d="M96.9 140L97 139.8L96.8 140.1L96.9 140Z" fill="white"/>
<path d="M96.5999 140C96.6999 139.9 96.5999 139.7 96.5999 139.7C96.4999 139.7 96.3999 139.8 96.3999 139.9C96.4999 139.8 96.4999 139.8 96.5999 140Z" fill="white"/>
<path d="M96.3 140L96.4 139.9C96.4 139.9 96.3 139.9 96.3 140Z" fill="white"/>
<path d="M96.9999 140.4C96.9999 140.4 96.9999 140.2 96.8999 140.2L96.9999 140.4Z" fill="white"/>
<path d="M97.5001 140.7C97.4001 140.8 97.3001 140.9 97.4001 141.1C97.4001 141 97.3001 140.9 97.5001 140.7Z" fill="white"/>
<path d="M97 140.7L97.1 140.8C97.1 140.7 97.1 140.7 97.1 140.6L97 140.7Z" fill="white"/>
<path d="M96.5 140.2C96.4 140.3 96.4 140.3 96.3 140.3C96.4 140.4 96.4 140.4 96.5 140.4V140.2Z" fill="white"/>
<path d="M96.5 140.5C96.5 140.5 96.6 140.5 96.6 140.4C96.6 140.4 96.5 140.4 96.5 140.5Z" fill="white"/>
<path d="M96.1001 140.1C96.1001 140.1 96.1001 140.2 96.2001 140.2C96.1001 140.2 96.1001 140 96.1001 140.1Z" fill="white"/>
<path d="M96.7001 140.3L96.6001 140.4C96.6001 140.4 96.7001 140.4 96.7001 140.3Z" fill="white"/>
<path d="M95.3 141.6C95.3 141.4 95.5 141.2 95.6 141.5C95.7 141.4 95.7 140.7 95.7 140.3C95.7 140.4 95.7 140.5 95.5 140.6C95.5 140.7 95.7 140.9 95.6 141C95.4 141.1 95.5 140.9 95.4 140.8C95.4 141.1 95.2 141.1 95.2 141.5L95.3 141.4C95.3 141.5 95.3 141.6 95.3 141.6Z" fill="white"/>
<path d="M95.9 140.3C95.9 140.2 95.9 140.2 95.8 140C95.7 140.1 95.7 140.2 95.7 140.2L95.9 140.3Z" fill="white"/>
<path d="M96.0999 140.4C95.9999 140.6 95.8999 140.7 95.9999 140.9C96.0999 140.9 96.0999 140.7 96.1999 140.7C95.9999 140.6 96.2999 140.5 96.0999 140.4H96.1999L96.0999 140.3C96.1999 140.3 96.1999 140.3 96.0999 140.4C96.1999 140.3 96.0999 140.3 96.0999 140.4C96.0999 140.3 96.0999 140.3 96.0999 140.4V140.3L95.8999 140.4C95.9999 140.4 95.9999 140.4 96.0999 140.4Z" fill="white"/>
<path d="M97 141.4C97.1 141.4 97.1 141.3 97 141.4C97.2 141.4 97.1 141.5 97 141.4C97.1 141.4 97.2 141.4 97.1 141.2C97 141.1 97 140.8 97 140.8C97 141.1 97 141.2 97 141.4Z" fill="white"/>
<path d="M96.5999 140.9L96.3999 141L96.4999 141.2V141.1C96.5999 141.2 96.5999 141 96.5999 140.9Z" fill="white"/>
<path d="M95.6 140.1L95.7 139.9L95.5 140.2L95.6 140.1Z" fill="white"/>
<path d="M95.4 140.2V140L95.3 140.1L95.4 140.2Z" fill="white"/>
<path d="M86 139.1C85.9 139 86 139 86 139.1V139.1Z" fill="white"/>
<path d="M89.3 140.3C89.3 140.1 89.2 139.8 89.2 140.1L89.3 140.3C89.2 140.2 89.3 140.2 89.3 140.3Z" fill="white"/>
<path d="M85.3 142.4L85.2 142.5L85.5 142.3L85.7 142.2L85.6 142.3L85.3 142.4Z" fill="white"/>
<path d="M83.1001 143.9L83.5001 143.5C83.4001 143.6 83.2001 143.7 83.1001 143.9Z" fill="white"/>
<path d="M86.9001 136.7L86.7001 136.6C86.6001 136.7 86.8001 136.7 86.9001 136.7Z" fill="white"/>
<path d="M92.8001 140.1C92.7001 140 92.7001 140 92.6001 140C92.7001 140.1 92.8001 140.3 92.8001 140.1Z" fill="white"/>
<path d="M92.3999 140C92.4999 140 92.4999 140 92.5999 140C92.5999 139.9 92.4999 139.8 92.3999 140Z" fill="white"/>
<path d="M92.1001 127.9C92.1001 128 92.1001 128 92.1001 127.9C92.2001 128 92.2001 128 92.1001 127.9Z" fill="white"/>
<path d="M94.3999 140C94.4999 140 94.4999 140 94.3999 140C94.4999 140 94.4999 139.9 94.3999 140Z" fill="white"/>
<path d="M87 143.1C87.3 142.7 87.4 142.8 87.4 142.8L87.7 142.1C87.5 142.4 87.3 142.8 87 143.1Z" fill="white"/>
<path d="M86.5 137.9H86.3C86.1 137.6 86.2 137.6 85.9 137.6C86.5 137.9 85.8 138 86.3 138.5L86.1 138.6V138.5C85.7 138.7 86.5 138.8 86.2 139.1H86C86 139.2 86 139.3 86 139.4C85.9 139.5 85.8 139.4 85.9 139.4L85.8 139.8C85.9 139.8 86 139.9 86.1 140C85.9 140.1 86 140 85.9 140C85.9 140.1 86 140.1 86 140.2C85.7 140.3 85.6 140.2 85.7 140C84.7 140.3 85.8 140.1 85.1 140.6V140.4C84.5 140.6 84.6 140.7 84.1 141.1C84.2 141 84.5 140.8 84.8 140.7C85.1 140.6 85.3 140.5 85.4 140.6C85.3 140.7 85.2 140.8 85.3 140.8C84.9 140.9 84.9 141 84.9 141.1L84.4 141.2C84.4 141.3 84.7 141.2 84.8 141.2C84.6 141.4 84.2 141.6 83.8 141.8C83.5 142.2 84.6 141.3 84.5 141.6C84 142 84.1 142.1 84.3 142.2C84 142.5 83.9 142.4 83.7 142.5C83.8 142.5 84 142.4 84.1 142.4C84.1 142.4 83.9 142.5 83.8 142.5C83.9 142.5 84.4 142.2 84.5 142.2C84.8 142 84.5 142.2 84.2 142.5C83.9 142.7 83.5 143 83.9 142.9C83.7 143.1 83.5 143.1 83.2 143.3C83.6 143.2 83.4 143.3 84.1 143L83.5 143.5C83.8 143.2 84.1 143 84.4 142.9L84.8 142.7L85 142.5C85.1 142.4 85.2 142.4 85.3 142.3C85.5 142.1 85.7 142 85.8 141.9C85.8 141.9 86 141.8 86.1 141.7L86.2 141.6C86.1 141.7 85.9 141.8 85.6 142C85.7 142 85.7 141.9 85.8 141.9C85.7 142 85.6 142.1 85.4 142.2C85.2 142.4 84.9 142.5 84.7 142.7C84.8 142.6 84.9 142.6 84.9 142.5L85.1 142.4C84.8 142.6 84.6 142.7 84.3 142.9C84.1 143.1 83.8 143.2 83.6 143.4C83.7 143.4 83.8 143.3 83.8 143.3C83.7 143.4 83.6 143.5 83.5 143.5C83.4 143.6 83.6 143.5 83.8 143.3L83 144L83.4 143.7C83.4 143.8 83.3 143.9 83.3 144C84.5 143.3 85.8 142.4 86.3 142.1C85.7 142.5 85.5 142.8 84.9 143.3C85.4 142.8 84.3 143.6 84.1 143.6C84.2 143.6 83.8 143.9 83.7 144L84.8 143.4C84.3 143.8 84.5 143.7 84.5 143.8C85.3 143 85.4 143.2 85.8 142.9C85.6 143.1 85.2 143.4 85.1 143.4C84.8 143.9 86.3 142.5 86 142.9C85.9 142.9 86 142.9 85.8 143C86.1 142.8 86.2 142.9 86 143.1V143C86.3 143 87.1 142.7 87.4 142.2C87.4 142.3 86.9 142.8 86.8 142.9C87.4 142.3 87.9 141.7 88.3 141.1C88 141.5 87.7 142.5 87.3 142.7C87.3 142.7 87.4 142.8 87.7 142.6L87.9 142C87.9 142.4 87.9 142.2 88 142.6C88 142.5 88.3 141.9 88.4 141.9C88.4 142 88.2 142.5 88.2 142.6C88.4 142.4 88.5 142.2 88.7 141.9C88.6 142 88.6 142.4 88.6 142.6C88.6 142.5 88.9 142.6 89 142.5L88.9 142.4C89.3 142.4 89.3 141.6 89.5 141.6C89.5 141.7 89.5 142.3 89.6 142.4C89.6 142.1 89.7 141 89.9 140.8L90 140.9L90.2 140.7C90.1 141.1 89.9 142.1 89.8 142.4C89.9 142.5 89.8 142.6 90 142.6C90.1 142.7 90 142.8 89.9 142.9L90.2 143C90.2 142.7 90.4 142.6 90.4 142.4L90 142.7C90 142.4 90.1 141.7 90.3 141.8C90.4 141.9 90.3 142.4 90.3 142.5C90.3 142.4 90.5 142.3 90.5 142.3L90.4 142.5C90.5 142.6 90.6 142 90.7 142.3C90.8 142.3 90.9 142.7 90.9 142.5C90.8 142.1 90.7 140.9 90.7 140.6C90.7 140.6 91 141 91.1 141.1C91.2 141.4 91 141.8 91.1 142.1C91.1 142 91.1 141.9 91.2 141.9C91.3 142 91.2 142.2 91.3 142.1C91.3 141.8 91.5 142.1 91.3 141.8C91.4 141.7 91.4 141.9 91.6 141.8C91.5 141.6 91.7 141 91.8 140.9C91.8 141 91.8 141.1 91.8 141.1C92 141.1 92.2 141.3 92.4 141.3C92.4 141.4 92.5 141.5 92.5 141.6C92.5 141.5 92.6 141.4 92.6 141.4C92.7 141.7 92.4 141.4 92.6 141.8C92.6 141.6 92.8 141.5 92.9 141.4C92.9 141.1 92.7 141.3 92.6 141.5C92.6 141.1 92.8 140.6 93 140.4C93.2 140.3 93.1 140.7 93.1 140.6C93.5 140.7 93.4 139.9 93.7 140.2C93.8 140.5 93.7 140.7 93.7 140.9C93.5 141 93.5 140.7 93.4 140.7L93.5 140.8C93.4 140.9 93.3 141 93.3 140.9C93.4 141.1 93.9 141 94.1 141.2C94.2 141.1 94.2 141 94.2 140.9H94.1C94 140.7 94.3 140.6 94.2 140.5C94.3 140.4 94.5 140.1 94.6 140.3V140.6C94.6 140.5 94.5 140.4 94.5 140.5C94.6 140.4 94.7 140.9 94.8 140.5L94.7 140.3C94.8 140.2 95 139.8 95.1 140C95.1 139.7 95.1 140 95 139.7C95.1 140.1 94.6 139.6 94.7 140.1C94.6 139.7 94.5 139.9 94.4 139.5C94.4 139.6 94.4 139.7 94.3 139.6V139.7C94.3 139.7 94.3 139.8 94.4 139.9C94.3 140.1 94.1 140.1 94.1 140.2C94 140.1 94.1 140.1 94.1 140L94 140.2C94 140 93.8 139.8 94 139.7H93.8C93.7 139.6 93.6 139.5 93.5 139.6C93.4 139.5 93.3 139.8 93.4 139.7L93.2 139.8V139.7C93 139.7 92.7 140.1 92.4 139.7C92.3 139.8 92.2 139.8 92.1 139.8V139.6C92 139.7 91.8 139.4 91.7 139.6C91.6 139.1 91.2 139.5 91 139.4V139.7C90.9 139.7 90.8 139.8 90.6 139.9V140.1C90.5 140.3 90.2 140 90 140C90 139.9 90.1 139.9 90.1 140C89.8 139.5 89.6 140.4 89.3 140.1C89.3 140.2 89.2 140.2 89.2 140.1V140C89.2 140.1 89.2 140.1 89.2 140.1C89.2 140.1 89.2 140.1 89.1 140.2V140C89.1 139.9 89.1 140.1 89.1 140.3C89.1 140.3 89.1 140.4 89 140.5C89 140.1 88.9 140.6 88.9 140.2C88.8 140.4 88.7 140.4 88.5 140.8C88.5 140.7 88.5 140.7 88.5 140.7C88.5 140.7 88.4 140.6 88.4 140.7L88.5 140.4C88.4 140.6 88.3 140.7 88.2 140.9C88.2 140.7 88.3 140.6 88.5 140.3C88.2 140.7 88.3 140.5 87.9 140.9L88.1 140.7C88.1 140.7 87.8 141 87.9 140.8C88 140.6 87.9 140.6 87.8 140.6C87.7 140.6 87.5 140.6 87.7 140.4C86.9 141.1 88 140.1 87.3 140.7C87.5 140.5 87.6 140.4 87.8 140.3C87.5 140.5 88.1 140 87.3 140.6C87.6 140.4 87.7 140.3 87.8 140.2C87.7 140.2 87.6 140.4 87.7 140.3C87.9 140.2 87.9 140.1 88 140.1C87.9 140.1 87.1 140.7 86.3 141.3C86.4 141.2 86.5 141.2 86.5 141.2C86.5 141.2 86.3 141.3 86 141.5C86.3 141.3 86.6 141.1 86.6 141.1C86.7 141 87.1 140.7 86.5 141C86.7 140.9 86.6 140.9 86.5 141C87 141 87 140.9 87 140.9L86.9 141C86.3 141.4 86.8 141 86.8 141H86.9C87.5 140.6 86.7 141 87.4 140.6L87 140.8C86.2 141.2 87.6 140.4 87.3 140.5H87C86.8 140.5 88.1 140 88.2 139.9C88.3 139.9 88.3 139.9 88.3 139.9C88.8 139.7 87.9 140 87.9 140C88.1 139.9 88.5 139.8 88.5 139.8C88.7 139.8 87.9 139.8 88.3 139.7C88.1 139.7 88 139.8 87.9 139.7C87.9 139.6 88.5 139.5 88.1 139.5H88.2C88.1 139.4 88.1 139.3 87.9 139.2C88.3 139.3 88.2 139.2 88.2 139.1C88.2 138.9 88.1 138.8 88.5 138.9L88.6 138.6H88.7C88.8 138.4 88.7 138.3 88.6 138.2C88.7 138.2 88.7 138.2 88.8 138.3C89.1 138.1 89 138.1 88.8 137.7L89 137.8C88.9 137.7 89.5 137.6 89.4 137.2C89.4 137.2 89.5 137.2 89.5 137.3C89.4 136.9 90.4 136.9 89.6 136.4L89.3 136C89.1 136.2 88.9 135.8 88.8 135.9C88.8 135.8 89.2 135.7 89.1 135.9C89.5 136.1 89.4 135.7 89.7 135.8C89.9 135.3 90.3 134.9 90.5 134.4L90.1 134.3L90.2 134.1C90.3 134.1 90.5 134.1 90.4 134.2C90.6 134.2 90.3 133.9 90.2 133.9C90.4 133.7 90.6 134.1 90.6 134.1V134C90.5 133.9 90.3 133.8 90.4 133.7C90.5 133.6 90.6 133.7 90.7 133.7C90.7 133.7 90.7 133.7 90.7 133.6L90.8 133.4H90.5C90.4 133.3 90.6 133.2 90.2 133.2C90.7 133.2 90.6 132.5 90.8 132.4C90.6 132.2 90.7 132.1 90.8 131.9C90.7 131.9 90.4 131.9 90.5 131.7C91.1 131.9 90.9 131.5 91.3 131.6C91 131.6 91.3 131.2 90.9 131.2C91 131.1 91.1 131.3 91.3 131.2C91.1 130.9 91.6 130.6 91.6 130.3C91.5 130.3 91.4 130.3 91.3 130.2L91.8 130.1C91.8 130 91.3 129.9 91.7 129.9C91.6 129.9 91.5 129.9 91.5 129.8C92.1 129.2 91.5 128.4 92.4 127.9C92.2 128 92.2 127.9 92.2 127.8C92.1 127.8 92 127.8 91.9 127.7L92.3 127.5C92 127.4 92.3 127.2 92 127.1V127.2C91.7 127 91.2 127.2 90.7 127.1C91 127.6 90 127.5 90.5 127.9C90.4 127.9 90.4 127.8 90.2 127.8C90.4 127.9 90.4 128 90.3 128.1C90.3 128.5 90 128.5 89.8 128.9H90C90 129 89.9 129 89.9 129C90.2 129.2 90 128.8 90.3 129C89.8 129 90.1 129.6 89.6 129.5C89.6 129.6 89.9 129.5 89.8 129.7H89.6L89.8 129.8C89.7 129.9 89.6 129.9 89.4 129.8V129.7C89.2 129.8 89.4 130 89.3 130L89.4 129.9C89.4 130.3 89.1 130.6 89.3 131H89.4C89.5 131.3 89.2 131.2 89.2 131.5C89.3 131.6 89.3 131.7 89.3 131.7C89.2 131.6 89 131.8 88.9 131.6C89 131.9 89 131.8 89.4 132.1H89.2C89.3 132.2 89.4 132.2 89.4 132.4C89.3 132.2 89.1 132.4 88.9 132.2C88.4 132.4 89.2 132.7 88.5 132.7C88.9 133 88.9 132.5 88.9 132.6C89.1 132.6 89.2 132.8 89.2 132.9C89.2 133 88.5 132.9 88.5 133.1C88.5 133.1 88.5 133.1 88.5 133C88.3 133 88.6 133.2 88.4 133.3C88.7 133.5 88.3 133.4 88.7 133.6V133.4C88.8 133.6 89.2 133.8 88.9 133.9C88.8 133.9 88.8 133.8 88.7 133.7C88.6 133.7 88.7 133.8 88.6 133.9C88.2 133.8 88.6 133.6 88.4 133.4C88.2 133.4 88.6 133.7 88.2 133.5C88.7 133.8 88.1 133.7 88.4 134L88.2 133.9C88.2 133.9 88.3 134 88.3 134.1L88 133.9C88.2 134.1 87.7 134.1 87.8 134.2C87.9 134 88.1 134.2 88.3 134.2C88.5 134.6 87.7 134.2 87.6 134.5C87.6 134.4 87.8 134.4 87.9 134.5C87.8 134.5 87.7 134.6 87.6 134.6C87.6 134.8 87.8 134.7 87.9 134.8C87.6 134.8 88 135 88 135.1L87.9 135C87.7 135.2 88.3 135.2 88.1 135.4L87.8 135.2V135.4L87.6 135.3C87.7 135.5 87.7 135.5 87.6 135.6C87.8 135.6 88 135.8 88 135.9C87.8 135.9 87.8 135.8 87.8 135.9C87.7 135.8 87.5 135.7 87.7 135.7C87.6 135.7 87.6 135.6 87.5 135.6C87.3 135.6 87.4 135.8 87.4 135.9C87.4 135.9 87.4 135.9 87.5 135.9L87.7 136.3C87.6 136.3 87.5 136.2 87.5 136.2C87.5 136.3 87.6 136.3 87.6 136.4C87.4 136.3 87.2 136.2 87.2 136.1L87.3 136.4C87.2 136.4 87 136.4 87 136.4C86.8 136.5 87.2 136.8 87 136.9L87.1 137C86.9 137 86.6 137 86.7 137.3H86.3C86.3 137.5 86.8 137.4 86.8 137.6C86.8 137.8 86.5 137.5 86.4 137.5C86.6 137.7 86.8 138 86.5 138C86.5 137.9 86.5 137.9 86.5 137.9ZM85.3 140.5C85.3 140.5 85.1 140.4 85.3 140.3C85.6 140.3 85.4 140.3 85.3 140.5ZM84.5 143.1C84.2 143.2 84.3 143.2 84.5 143.1C84.5 143 84.5 143 84.5 143.1ZM93.8 140.2C93.7 140.1 93.7 140.1 93.8 140.2V140.2ZM93.9 140.3V140.2C93.9 140.2 93.9 140.2 93.9 140.3ZM90.5 133.7C90.4 133.6 90.5 133.7 90.5 133.7V133.7Z" fill="white"/>
<path d="M83.3 143.7C83.4 143.6 83.5 143.5 83.6 143.5C83.6 143.5 83.5 143.6 83.3 143.7Z" fill="white"/>
<path d="M91.3 142.3L91.2 142.2C91.2 142.3 91.2 142.3 91.3 142.3Z" fill="white"/>
<path d="M94.9 139.9L94.8 140C94.9 140 94.9 140 94.9 140.1C94.9 140 94.9 139.9 94.9 139.9Z" fill="white"/>
<path d="M95.8 141.5L95.9 141.4C95.8 141.3 95.7 141.4 95.8 141.5Z" fill="white"/>
<path d="M95 140.7C95 140.9 95.1 140.8 95.2 140.8C95.2 140.5 95.1 140.6 95 140.7Z" fill="white"/>
<path d="M95.1001 140.8C95.2001 140.8 95.2001 140.8 95.1001 140.8C95.2001 140.7 95.2001 140.8 95.1001 140.8Z" fill="white"/>
<path d="M94.2001 140.1C94.2001 140.2 94.2001 139.8 94.3001 139.9C94.3001 139.7 94.0001 140.3 94.2001 140.1Z" fill="white"/>
<path d="M94.9999 141.4V141.1L94.8999 141.3L94.9999 141.4Z" fill="white"/>
<path d="M94.3999 141.2L94.4999 141.3V141.2C94.4999 141.1 94.3999 141.1 94.3999 141.2Z" fill="white"/>
<path d="M94.5 141.2H94.6C94.6 141.1 94.6 141.1 94.5 141.2Z" fill="white"/>
<path d="M94.8 141.5V141.4H94.7L94.8 141.5Z" fill="white"/>
<path d="M92.9999 141.1L92.8999 141.2C92.8999 141.3 92.8999 141.3 92.9999 141.3C92.9999 141.2 93.0999 141.1 92.9999 141.1Z" fill="white"/>
<path d="M93.4 141.8C93.4 141.7 93.4 141.7 93.3 141.6V141.9L93.4 141.8Z" fill="white"/>
<path d="M93.1001 141.8C93.1001 141.9 92.9001 142 93.1001 142C93.0001 142 93.2001 141.9 93.1001 141.8Z" fill="white"/>
<path d="M91 141.5H91.1L91 141V141.5Z" fill="white"/>
<path d="M89.2 142.9C89.5 143 89.3 142.6 89.5 142.7C89.5 142.6 89.3 142.6 89.4 142.5C89.3 142.6 89.2 142.6 89.2 142.9Z" fill="white"/>
<path d="M92.4999 127.6L92.5999 127.5L92.3999 127.6H92.4999Z" fill="white"/>
<path d="M84 141.2H84.1C84.2 141.1 84.3 141.1 84.4 141L84 141.2Z" fill="white"/>
<path d="M86.1001 137.3V137.4C86.1001 137.3 86.4001 137.4 86.1001 137.3Z" fill="white"/>
</g>
<defs>
<clipPath id="clip0_214_2">
<rect width="50.2" height="85" fill="white" transform="translate(83 59)"/>
</clipPath>
</defs>
</svg>
