<svg width="218" height="46" viewBox="0 0 218 46" fill="none" xmlns="http://www.w3.org/2000/svg">
<g opacity="0.33">
<path opacity="0.56" d="M201.551 43.3155C201.551 41.8509 200.364 40.6635 198.899 40.6635C197.435 40.6635 196.247 41.8509 196.247 43.3155C196.247 44.7802 197.435 45.9675 198.899 45.9675C200.364 45.9675 201.551 44.7802 201.551 43.3155Z" fill="#B0B0B0"/>
<path opacity="0.56" d="M201.551 22.9838C201.551 21.5191 200.364 20.3318 198.899 20.3318C197.435 20.3318 196.247 21.5191 196.247 22.9838C196.247 24.4484 197.435 25.6357 198.899 25.6357C200.364 25.6357 201.551 24.4484 201.551 22.9838Z" fill="#B0B0B0"/>
<path opacity="0.56" d="M201.551 2.65172C201.551 1.18707 200.364 -0.000271744 198.899 -0.000271594C197.435 -0.000271443 196.247 1.18707 196.247 2.65172C196.247 4.11637 197.435 5.30371 198.899 5.30371C200.364 5.30371 201.551 4.11637 201.551 2.65172Z" fill="#B0B0B0"/>
<path opacity="0.56" d="M217.463 43.3155C217.463 41.8509 216.276 40.6635 214.811 40.6635C213.347 40.6635 212.159 41.8509 212.159 43.3155C212.159 44.7802 213.347 45.9675 214.811 45.9675C216.276 45.9675 217.463 44.7802 217.463 43.3155Z" fill="#B0B0B0"/>
<path opacity="0.56" d="M217.463 22.9838C217.463 21.5191 216.276 20.3318 214.811 20.3318C213.347 20.3318 212.159 21.5191 212.159 22.9838C212.159 24.4484 213.347 25.6357 214.811 25.6357C216.276 25.6357 217.463 24.4484 217.463 22.9838Z" fill="#B0B0B0"/>
<path opacity="0.56" d="M217.463 2.65172C217.463 1.18707 216.276 -0.000271744 214.811 -0.000271594C213.347 -0.000271443 212.159 1.18707 212.159 2.65172C212.159 4.11637 213.347 5.30371 214.811 5.30371C216.276 5.30371 217.463 4.11637 217.463 2.65172Z" fill="#B0B0B0"/>
<path opacity="0.56" d="M168.843 43.3155C168.843 41.8509 167.656 40.6635 166.191 40.6635C164.727 40.6635 163.539 41.8509 163.539 43.3155C163.539 44.7802 164.727 45.9675 166.191 45.9675C167.656 45.9675 168.843 44.7802 168.843 43.3155Z" fill="#B0B0B0"/>
<path opacity="0.56" d="M168.843 22.9838C168.843 21.5191 167.656 20.3318 166.191 20.3318C164.727 20.3318 163.539 21.5191 163.539 22.9838C163.539 24.4484 164.727 25.6357 166.191 25.6357C167.656 25.6357 168.843 24.4484 168.843 22.9838Z" fill="#B0B0B0"/>
<path opacity="0.56" d="M168.843 2.65172C168.843 1.18707 167.656 -0.000271744 166.191 -0.000271594C164.727 -0.000271443 163.539 1.18707 163.539 2.65172C163.539 4.11637 164.727 5.30371 166.191 5.30371C167.656 5.30371 168.843 4.11637 168.843 2.65172Z" fill="#B0B0B0"/>
<path opacity="0.56" d="M184.755 43.3155C184.755 41.8509 183.568 40.6635 182.103 40.6635C180.639 40.6635 179.451 41.8509 179.451 43.3155C179.451 44.7802 180.639 45.9675 182.103 45.9675C183.568 45.9675 184.755 44.7802 184.755 43.3155Z" fill="#B0B0B0"/>
<path opacity="0.56" d="M184.755 22.9838C184.755 21.5191 183.568 20.3318 182.103 20.3318C180.639 20.3318 179.451 21.5191 179.451 22.9838C179.451 24.4484 180.639 25.6357 182.103 25.6357C183.568 25.6357 184.755 24.4484 184.755 22.9838Z" fill="#B0B0B0"/>
<path opacity="0.56" d="M184.755 2.65172C184.755 1.18707 183.568 -0.000271744 182.103 -0.000271594C180.639 -0.000271443 179.451 1.18707 179.451 2.65172C179.451 4.11637 180.639 5.30371 182.103 5.30371C183.568 5.30371 184.755 4.11637 184.755 2.65172Z" fill="#B0B0B0"/>
<path opacity="0.56" d="M136.136 43.3158C136.136 41.8511 134.948 40.6638 133.484 40.6638C132.019 40.6638 130.832 41.8511 130.832 43.3158C130.832 44.7804 132.019 45.9678 133.484 45.9678C134.948 45.9678 136.136 44.7804 136.136 43.3158Z" fill="#B0B0B0"/>
<path opacity="0.56" d="M136.136 22.9838C136.136 21.5191 134.948 20.3318 133.484 20.3318C132.019 20.3318 130.832 21.5191 130.832 22.9838C130.832 24.4484 132.019 25.6357 133.484 25.6357C134.948 25.6357 136.136 24.4484 136.136 22.9838Z" fill="#B0B0B0"/>
<path opacity="0.56" d="M136.136 2.65172C136.136 1.18707 134.948 -0.000271744 133.484 -0.000271594C132.019 -0.000271443 130.832 1.18707 130.832 2.65172C130.832 4.11637 132.019 5.30371 133.484 5.30371C134.948 5.30371 136.136 4.11637 136.136 2.65172Z" fill="#B0B0B0"/>
<path opacity="0.56" d="M152.047 43.3158C152.047 41.8511 150.86 40.6638 149.395 40.6638C147.931 40.6638 146.743 41.8511 146.743 43.3158C146.743 44.7804 147.931 45.9678 149.395 45.9678C150.86 45.9678 152.047 44.7804 152.047 43.3158Z" fill="#B0B0B0"/>
<path opacity="0.56" d="M152.047 22.9838C152.047 21.5191 150.86 20.3318 149.395 20.3318C147.931 20.3318 146.743 21.5191 146.743 22.9838C146.743 24.4484 147.931 25.6357 149.395 25.6357C150.86 25.6357 152.047 24.4484 152.047 22.9838Z" fill="#B0B0B0"/>
<path opacity="0.56" d="M152.047 2.65172C152.047 1.18707 150.86 -0.000271744 149.395 -0.000271594C147.931 -0.000271443 146.743 1.18707 146.743 2.65172C146.743 4.11637 147.931 5.30371 149.395 5.30371C150.86 5.30371 152.047 4.11637 152.047 2.65172Z" fill="#B0B0B0"/>
<path opacity="0.56" d="M103.428 43.3158C103.428 41.8511 102.24 40.6638 100.776 40.6638C99.3109 40.6638 98.1235 41.8511 98.1235 43.3158C98.1235 44.7804 99.3109 45.9678 100.776 45.9678C102.24 45.9678 103.428 44.7804 103.428 43.3158Z" fill="#B0B0B0"/>
<path opacity="0.56" d="M103.428 22.9838C103.428 21.5191 102.24 20.3318 100.776 20.3318C99.3109 20.3318 98.1235 21.5191 98.1235 22.9838C98.1235 24.4484 99.3109 25.6357 100.776 25.6357C102.24 25.6357 103.428 24.4484 103.428 22.9838Z" fill="#B0B0B0"/>
<path opacity="0.56" d="M103.428 2.65172C103.428 1.18707 102.24 -0.000271744 100.776 -0.000271594C99.3109 -0.000271443 98.1235 1.18707 98.1235 2.65172C98.1235 4.11637 99.3109 5.30371 100.776 5.30371C102.24 5.30371 103.428 4.11637 103.428 2.65172Z" fill="#B0B0B0"/>
<path opacity="0.56" d="M119.34 43.3158C119.34 41.8511 118.152 40.6638 116.688 40.6638C115.223 40.6638 114.036 41.8511 114.036 43.3158C114.036 44.7804 115.223 45.9678 116.688 45.9678C118.152 45.9678 119.34 44.7804 119.34 43.3158Z" fill="#B0B0B0"/>
<path opacity="0.56" d="M119.339 22.9838C119.339 21.5191 118.152 20.3318 116.687 20.3318C115.223 20.3318 114.035 21.5191 114.035 22.9838C114.035 24.4484 115.223 25.6357 116.687 25.6357C118.152 25.6357 119.339 24.4484 119.339 22.9838Z" fill="#B0B0B0"/>
<path opacity="0.56" d="M119.339 2.65172C119.339 1.18707 118.152 -0.000271744 116.687 -0.000271594C115.223 -0.000271443 114.035 1.18707 114.035 2.65172C114.035 4.11637 115.223 5.30371 116.687 5.30371C118.152 5.30371 119.339 4.11637 119.339 2.65172Z" fill="#B0B0B0"/>
<path opacity="0.56" d="M70.7198 43.3155C70.7198 41.8509 69.5324 40.6635 68.0678 40.6635C66.6031 40.6635 65.4158 41.8509 65.4158 43.3155C65.4158 44.7802 66.6031 45.9675 68.0678 45.9675C69.5324 45.9675 70.7198 44.7802 70.7198 43.3155Z" fill="#B0B0B0"/>
<path opacity="0.56" d="M70.7198 22.9838C70.7198 21.5191 69.5324 20.3318 68.0678 20.3318C66.6031 20.3318 65.4158 21.5191 65.4158 22.9838C65.4158 24.4484 66.6031 25.6357 68.0678 25.6357C69.5324 25.6357 70.7198 24.4484 70.7198 22.9838Z" fill="#B0B0B0"/>
<path opacity="0.56" d="M70.7198 2.65172C70.7198 1.18707 69.5324 -0.000271744 68.0678 -0.000271594C66.6031 -0.000271443 65.4158 1.18707 65.4158 2.65172C65.4158 4.11637 66.6031 5.30371 68.0678 5.30371C69.5324 5.30371 70.7198 4.11637 70.7198 2.65172Z" fill="#B0B0B0"/>
<path opacity="0.56" d="M86.6316 43.3158C86.6316 41.8511 85.4443 40.6638 83.9796 40.6638C82.515 40.6638 81.3276 41.8511 81.3276 43.3158C81.3276 44.7804 82.515 45.9678 83.9796 45.9678C85.4443 45.9678 86.6316 44.7804 86.6316 43.3158Z" fill="#B0B0B0"/>
<path opacity="0.56" d="M86.6316 22.9838C86.6316 21.5191 85.4443 20.3318 83.9796 20.3318C82.515 20.3318 81.3276 21.5191 81.3276 22.9838C81.3276 24.4484 82.515 25.6357 83.9796 25.6357C85.4443 25.6357 86.6316 24.4484 86.6316 22.9838Z" fill="#B0B0B0"/>
<path opacity="0.56" d="M86.6316 2.65172C86.6316 1.18707 85.4443 -0.000271744 83.9796 -0.000271594C82.515 -0.000271443 81.3276 1.18707 81.3276 2.65172C81.3276 4.11637 82.515 5.30371 83.9796 5.30371C85.4443 5.30371 86.6316 4.11637 86.6316 2.65172Z" fill="#B0B0B0"/>
<path opacity="0.56" d="M38.0117 43.3155C38.0117 41.8509 36.8244 40.6635 35.3598 40.6635C33.8951 40.6635 32.7078 41.8509 32.7078 43.3155C32.7078 44.7802 33.8951 45.9675 35.3598 45.9675C36.8244 45.9675 38.0117 44.7802 38.0117 43.3155Z" fill="#B0B0B0"/>
<path opacity="0.56" d="M38.0117 22.9838C38.0117 21.5191 36.8244 20.3318 35.3598 20.3318C33.8951 20.3318 32.7078 21.5191 32.7078 22.9838C32.7078 24.4484 33.8951 25.6357 35.3598 25.6357C36.8244 25.6357 38.0117 24.4484 38.0117 22.9838Z" fill="#B0B0B0"/>
<path opacity="0.56" d="M38.0117 2.65172C38.0117 1.18707 36.8244 -0.000271744 35.3598 -0.000271594C33.8951 -0.000271443 32.7078 1.18707 32.7078 2.65172C32.7078 4.11637 33.8951 5.30371 35.3598 5.30371C36.8244 5.30371 38.0117 4.11637 38.0117 2.65172Z" fill="#B0B0B0"/>
<path opacity="0.56" d="M53.9239 43.3155C53.9239 41.8509 52.7365 40.6635 51.2719 40.6635C49.8072 40.6635 48.6199 41.8509 48.6199 43.3155C48.6199 44.7802 49.8072 45.9675 51.2719 45.9675C52.7365 45.9675 53.9239 44.7802 53.9239 43.3155Z" fill="#B0B0B0"/>
<path opacity="0.56" d="M53.9239 22.9838C53.9239 21.5191 52.7365 20.3318 51.2719 20.3318C49.8072 20.3318 48.6199 21.5191 48.6199 22.9838C48.6199 24.4484 49.8072 25.6357 51.2719 25.6357C52.7365 25.6357 53.9239 24.4484 53.9239 22.9838Z" fill="#B0B0B0"/>
<path opacity="0.56" d="M53.9239 2.65172C53.9239 1.18707 52.7365 -0.000271744 51.2719 -0.000271594C49.8072 -0.000271443 48.6199 1.18707 48.6199 2.65172C48.6199 4.11637 49.8072 5.30371 51.2719 5.30371C52.7365 5.30371 53.9239 4.11637 53.9239 2.65172Z" fill="#B0B0B0"/>
<path opacity="0.56" d="M5.30398 43.3158C5.30398 41.8511 4.11665 40.6638 2.65199 40.6638C1.18734 40.6638 -7.63475e-08 41.8511 -4.9184e-08 43.3158C-2.20204e-08 44.7804 1.18734 45.9678 2.65199 45.9678C4.11665 45.9678 5.30398 44.7804 5.30398 43.3158Z" fill="#B0B0B0"/>
<path opacity="0.56" d="M5.30398 22.9838C5.30398 21.5191 4.11665 20.3318 2.65199 20.3318C1.18734 20.3318 -7.63475e-08 21.5191 -4.9184e-08 22.9838C-2.20204e-08 24.4484 1.18734 25.6357 2.65199 25.6357C4.11665 25.6357 5.30398 24.4484 5.30398 22.9838Z" fill="#B0B0B0"/>
<path opacity="0.56" d="M5.30398 2.65172C5.30398 1.18707 4.11665 -0.000271744 2.65199 -0.000271594C1.18734 -0.000271443 -7.63475e-08 1.18707 -4.9184e-08 2.65172C-2.20204e-08 4.11637 1.18734 5.30371 2.65199 5.30371C4.11665 5.30371 5.30398 4.11637 5.30398 2.65172Z" fill="#B0B0B0"/>
<path opacity="0.56" d="M21.2158 43.3155C21.2158 41.8509 20.0285 40.6635 18.5639 40.6635C17.0992 40.6635 15.9119 41.8509 15.9119 43.3155C15.9119 44.7802 17.0992 45.9675 18.5639 45.9675C20.0285 45.9675 21.2158 44.7802 21.2158 43.3155Z" fill="#B0B0B0"/>
<path opacity="0.56" d="M21.2158 22.9838C21.2158 21.5191 20.0285 20.3318 18.5639 20.3318C17.0992 20.3318 15.9119 21.5191 15.9119 22.9838C15.9119 24.4484 17.0992 25.6357 18.5639 25.6357C20.0285 25.6357 21.2158 24.4484 21.2158 22.9838Z" fill="#B0B0B0"/>
<path opacity="0.56" d="M21.2161 2.65172C21.2161 1.18707 20.0288 -0.000271744 18.5641 -0.000271594C17.0994 -0.000271443 15.9121 1.18707 15.9121 2.65172C15.9121 4.11637 17.0994 5.30371 18.5641 5.30371C20.0288 5.30371 21.2161 4.11637 21.2161 2.65172Z" fill="#B0B0B0"/>
</g>
</svg>
