<svg width="213" height="49" viewBox="0 0 213 49" fill="none" xmlns="http://www.w3.org/2000/svg">
<path opacity="0.56" d="M212.805 45.7347C212.805 44.1882 211.552 42.9346 210.005 42.9346C208.459 42.9346 207.205 44.1882 207.205 45.7347C207.205 47.2811 208.459 48.5347 210.005 48.5347C211.552 48.5347 212.805 47.2811 212.805 45.7347Z" fill="#B0B0B0"/>
<path opacity="0.56" d="M212.805 24.2674C212.805 22.7209 211.552 21.4673 210.005 21.4673C208.459 21.4673 207.205 22.7209 207.205 24.2674C207.205 25.8138 208.459 27.0674 210.005 27.0674C211.552 27.0674 212.805 25.8138 212.805 24.2674Z" fill="#B0B0B0"/>
<path opacity="0.56" d="M212.805 2.80009C212.805 1.25366 211.552 2.54939e-05 210.005 2.55847e-05C208.459 2.56756e-05 207.205 1.25366 207.205 2.80009C207.205 4.34653 208.459 5.60016 210.005 5.60016C211.552 5.60016 212.805 4.34653 212.805 2.80009Z" fill="#B0B0B0"/>
<path opacity="0.56" d="M178.271 45.7347C178.271 44.1882 177.017 42.9346 175.471 42.9346C173.925 42.9346 172.671 44.1882 172.671 45.7347C172.671 47.2811 173.925 48.5347 175.471 48.5347C177.017 48.5347 178.271 47.2811 178.271 45.7347Z" fill="#B0B0B0"/>
<path opacity="0.56" d="M178.271 24.2674C178.271 22.7209 177.017 21.4673 175.471 21.4673C173.925 21.4673 172.671 22.7209 172.671 24.2674C172.671 25.8138 173.925 27.0674 175.471 27.0674C177.017 27.0674 178.271 25.8138 178.271 24.2674Z" fill="#B0B0B0"/>
<path opacity="0.56" d="M178.271 2.80009C178.271 1.25366 177.017 2.54939e-05 175.471 2.55847e-05C173.925 2.56756e-05 172.671 1.25366 172.671 2.80009C172.671 4.34653 173.925 5.60016 175.471 5.60016C177.017 5.60016 178.271 4.34653 178.271 2.80009Z" fill="#B0B0B0"/>
<path opacity="0.56" d="M195.071 45.7347C195.071 44.1882 193.818 42.9346 192.271 42.9346C190.725 42.9346 189.471 44.1882 189.471 45.7347C189.471 47.2811 190.725 48.5347 192.271 48.5347C193.818 48.5347 195.071 47.2811 195.071 45.7347Z" fill="#B0B0B0"/>
<path opacity="0.56" d="M195.071 24.2674C195.071 22.7209 193.818 21.4673 192.271 21.4673C190.725 21.4673 189.471 22.7209 189.471 24.2674C189.471 25.8138 190.725 27.0674 192.271 27.0674C193.818 27.0674 195.071 25.8138 195.071 24.2674Z" fill="#B0B0B0"/>
<path opacity="0.56" d="M195.071 2.80009C195.071 1.25366 193.818 2.54939e-05 192.271 2.55847e-05C190.725 2.56756e-05 189.471 1.25366 189.471 2.80009C189.471 4.34653 190.725 5.60016 192.271 5.60016C193.818 5.60016 195.071 4.34653 195.071 2.80009Z" fill="#B0B0B0"/>
<path opacity="0.56" d="M143.737 45.7347C143.737 44.1882 142.483 42.9346 140.937 42.9346C139.39 42.9346 138.137 44.1882 138.137 45.7347C138.137 47.2811 139.39 48.5347 140.937 48.5347C142.483 48.5347 143.737 47.2811 143.737 45.7347Z" fill="#B0B0B0"/>
<path opacity="0.56" d="M143.737 24.2676C143.737 22.7212 142.483 21.4676 140.937 21.4676C139.39 21.4676 138.137 22.7212 138.137 24.2676C138.137 25.8141 139.39 27.0677 140.937 27.0677C142.483 27.0677 143.737 25.8141 143.737 24.2676Z" fill="#B0B0B0"/>
<path opacity="0.56" d="M143.737 2.80009C143.737 1.25366 142.483 2.54939e-05 140.937 2.55847e-05C139.39 2.56756e-05 138.137 1.25366 138.137 2.80009C138.137 4.34653 139.39 5.60016 140.937 5.60016C142.483 5.60016 143.737 4.34653 143.737 2.80009Z" fill="#B0B0B0"/>
<path opacity="0.56" d="M160.537 45.7347C160.537 44.1882 159.284 42.9346 157.737 42.9346C156.191 42.9346 154.937 44.1882 154.937 45.7347C154.937 47.2811 156.191 48.5347 157.737 48.5347C159.284 48.5347 160.537 47.2811 160.537 45.7347Z" fill="#B0B0B0"/>
<path opacity="0.56" d="M160.537 24.2676C160.537 22.7212 159.284 21.4676 157.737 21.4676C156.191 21.4676 154.937 22.7212 154.937 24.2676C154.937 25.8141 156.191 27.0677 157.737 27.0677C159.284 27.0677 160.537 25.8141 160.537 24.2676Z" fill="#B0B0B0"/>
<path opacity="0.56" d="M160.537 2.80009C160.537 1.25366 159.284 2.54939e-05 157.737 2.55847e-05C156.191 2.56756e-05 154.937 1.25366 154.937 2.80009C154.937 4.34653 156.191 5.60016 157.737 5.60016C159.284 5.60016 160.537 4.34653 160.537 2.80009Z" fill="#B0B0B0"/>
<path opacity="0.56" d="M109.203 45.7347C109.203 44.1882 107.949 42.9346 106.403 42.9346C104.856 42.9346 103.603 44.1882 103.603 45.7347C103.603 47.2811 104.856 48.5347 106.403 48.5347C107.949 48.5347 109.203 47.2811 109.203 45.7347Z" fill="#B0B0B0"/>
<path opacity="0.56" d="M109.203 24.2676C109.203 22.7212 107.949 21.4676 106.403 21.4676C104.856 21.4676 103.603 22.7212 103.603 24.2676C103.603 25.8141 104.856 27.0677 106.403 27.0677C107.949 27.0677 109.203 25.8141 109.203 24.2676Z" fill="#B0B0B0"/>
<path opacity="0.56" d="M109.203 2.80009C109.203 1.25366 107.949 2.54939e-05 106.403 2.55847e-05C104.856 2.56756e-05 103.603 1.25366 103.603 2.80009C103.603 4.34653 104.856 5.60016 106.403 5.60016C107.949 5.60016 109.203 4.34653 109.203 2.80009Z" fill="#B0B0B0"/>
<path opacity="0.56" d="M126.003 45.7347C126.003 44.1882 124.749 42.9346 123.203 42.9346C121.656 42.9346 120.403 44.1882 120.403 45.7347C120.403 47.2811 121.656 48.5347 123.203 48.5347C124.749 48.5347 126.003 47.2811 126.003 45.7347Z" fill="#B0B0B0"/>
<path opacity="0.56" d="M126.003 24.2676C126.003 22.7212 124.749 21.4676 123.203 21.4676C121.656 21.4676 120.403 22.7212 120.403 24.2676C120.403 25.8141 121.656 27.0677 123.203 27.0677C124.749 27.0677 126.003 25.8141 126.003 24.2676Z" fill="#B0B0B0"/>
<path opacity="0.56" d="M126.003 2.80009C126.003 1.25366 124.749 2.54939e-05 123.203 2.55847e-05C121.656 2.56756e-05 120.403 1.25366 120.403 2.80009C120.403 4.34653 121.656 5.60016 123.203 5.60016C124.749 5.60016 126.003 4.34653 126.003 2.80009Z" fill="#B0B0B0"/>
<path opacity="0.56" d="M74.6685 45.7347C74.6685 44.1882 73.4149 42.9346 71.8684 42.9346C70.322 42.9346 69.0684 44.1882 69.0684 45.7347C69.0684 47.2811 70.322 48.5347 71.8684 48.5347C73.4149 48.5347 74.6685 47.2811 74.6685 45.7347Z" fill="#B0B0B0"/>
<path opacity="0.56" d="M74.6685 24.2676C74.6685 22.7212 73.4149 21.4676 71.8684 21.4676C70.322 21.4676 69.0684 22.7212 69.0684 24.2676C69.0684 25.8141 70.322 27.0677 71.8684 27.0677C73.4149 27.0677 74.6685 25.8141 74.6685 24.2676Z" fill="#B0B0B0"/>
<path opacity="0.56" d="M74.6685 2.80009C74.6685 1.25366 73.4149 2.54939e-05 71.8684 2.55847e-05C70.322 2.56756e-05 69.0684 1.25366 69.0684 2.80009C69.0684 4.34653 70.322 5.60016 71.8684 5.60016C73.4149 5.60016 74.6685 4.34653 74.6685 2.80009Z" fill="#B0B0B0"/>
<path opacity="0.56" d="M91.4688 45.7347C91.4688 44.1882 90.2152 42.9346 88.6687 42.9346C87.1223 42.9346 85.8687 44.1882 85.8687 45.7347C85.8687 47.2811 87.1223 48.5347 88.6687 48.5347C90.2152 48.5347 91.4688 47.2811 91.4688 45.7347Z" fill="#B0B0B0"/>
<path opacity="0.56" d="M91.4688 24.2676C91.4688 22.7212 90.2152 21.4676 88.6687 21.4676C87.1223 21.4676 85.8687 22.7212 85.8687 24.2676C85.8687 25.8141 87.1223 27.0677 88.6687 27.0677C90.2152 27.0677 91.4688 25.8141 91.4688 24.2676Z" fill="#B0B0B0"/>
<path opacity="0.56" d="M91.4688 2.80009C91.4688 1.25366 90.2152 2.54939e-05 88.6687 2.55847e-05C87.1223 2.56756e-05 85.8687 1.25366 85.8687 2.80009C85.8687 4.34653 87.1223 5.60016 88.6687 5.60016C90.2152 5.60016 91.4688 4.34653 91.4688 2.80009Z" fill="#B0B0B0"/>
<path opacity="0.56" d="M40.1343 45.7347C40.1343 44.1882 38.8807 42.9346 37.3342 42.9346C35.7878 42.9346 34.5342 44.1882 34.5342 45.7347C34.5342 47.2811 35.7878 48.5347 37.3342 48.5347C38.8807 48.5347 40.1343 47.2811 40.1343 45.7347Z" fill="#B0B0B0"/>
<path opacity="0.56" d="M40.1343 24.2676C40.1343 22.7212 38.8807 21.4676 37.3342 21.4676C35.7878 21.4676 34.5342 22.7212 34.5342 24.2676C34.5342 25.8141 35.7878 27.0677 37.3342 27.0677C38.8807 27.0677 40.1343 25.8141 40.1343 24.2676Z" fill="#B0B0B0"/>
<path opacity="0.56" d="M40.1343 2.80009C40.1343 1.25366 38.8807 2.54939e-05 37.3342 2.55847e-05C35.7878 2.56756e-05 34.5342 1.25366 34.5342 2.80009C34.5342 4.34653 35.7878 5.60016 37.3342 5.60016C38.8807 5.60016 40.1343 4.34653 40.1343 2.80009Z" fill="#B0B0B0"/>
<path opacity="0.56" d="M56.9346 45.7347C56.9346 44.1882 55.681 42.9346 54.1345 42.9346C52.5881 42.9346 51.3345 44.1882 51.3345 45.7347C51.3345 47.2811 52.5881 48.5347 54.1345 48.5347C55.681 48.5347 56.9346 47.2811 56.9346 45.7347Z" fill="#B0B0B0"/>
<path opacity="0.56" d="M56.9346 24.2676C56.9346 22.7212 55.681 21.4676 54.1345 21.4676C52.5881 21.4676 51.3345 22.7212 51.3345 24.2676C51.3345 25.8141 52.5881 27.0677 54.1345 27.0677C55.681 27.0677 56.9346 25.8141 56.9346 24.2676Z" fill="#B0B0B0"/>
<path opacity="0.56" d="M56.9346 2.80009C56.9346 1.25366 55.681 2.54939e-05 54.1345 2.55847e-05C52.5881 2.56756e-05 51.3345 1.25366 51.3345 2.80009C51.3345 4.34653 52.5881 5.60016 54.1345 5.60016C55.681 5.60016 56.9346 4.34653 56.9346 2.80009Z" fill="#B0B0B0"/>
<path opacity="0.56" d="M5.60013 45.7347C5.60013 44.1882 4.3465 42.9346 2.80007 42.9346C1.25363 42.9346 -1.41384e-07 44.1882 -9.10815e-08 45.7347C-4.07786e-08 47.2811 1.25363 48.5347 2.80007 48.5347C4.3465 48.5347 5.60013 47.2811 5.60013 45.7347Z" fill="#B0B0B0"/>
<path opacity="0.56" d="M5.60013 24.2676C5.60013 22.7212 4.3465 21.4676 2.80007 21.4676C1.25363 21.4676 -1.41378e-07 22.7212 -9.10775e-08 24.2676C-4.07768e-08 25.8141 1.25363 27.0677 2.80007 27.0677C4.3465 27.0677 5.60013 25.8141 5.60013 24.2676Z" fill="#B0B0B0"/>
<path opacity="0.56" d="M5.60013 2.80009C5.60013 1.25366 4.3465 2.54939e-05 2.80007 2.55847e-05C1.25363 2.56756e-05 -1.41384e-07 1.25366 -9.10815e-08 2.80009C-4.07786e-08 4.34653 1.25363 5.60016 2.80007 5.60016C4.3465 5.60016 5.60013 4.34653 5.60013 2.80009Z" fill="#B0B0B0"/>
<path opacity="0.56" d="M22.4004 45.7347C22.4004 44.1882 21.1468 42.9346 19.6004 42.9346C18.0539 42.9346 16.8003 44.1882 16.8003 45.7347C16.8003 47.2811 18.0539 48.5347 19.6004 48.5347C21.1468 48.5347 22.4004 47.2811 22.4004 45.7347Z" fill="#B0B0B0"/>
<path opacity="0.56" d="M22.4004 24.2676C22.4004 22.7212 21.1468 21.4676 19.6004 21.4676C18.0539 21.4676 16.8003 22.7212 16.8003 24.2676C16.8003 25.8141 18.0539 27.0677 19.6004 27.0677C21.1468 27.0677 22.4004 25.8141 22.4004 24.2676Z" fill="#B0B0B0"/>
<path opacity="0.56" d="M22.4004 2.80009C22.4004 1.25366 21.1468 2.54939e-05 19.6004 2.55847e-05C18.0539 2.56756e-05 16.8003 1.25366 16.8003 2.80009C16.8003 4.34653 18.0539 5.60016 19.6004 5.60016C21.1468 5.60016 22.4004 4.34653 22.4004 2.80009Z" fill="#B0B0B0"/>
</svg>
