<svg width="148" height="123" viewBox="0 0 148 123" fill="none" xmlns="http://www.w3.org/2000/svg">
<g opacity="0.25">
<path d="M105.169 117.954V105.46C105.169 98.8324 102.536 92.4766 97.8498 87.7905C93.1637 83.1043 86.8079 80.4717 80.1807 80.4717H30.2048C23.5775 80.4717 17.2218 83.1043 12.5356 87.7905C7.84945 92.4766 5.2168 98.8324 5.2168 105.46V117.954" stroke="white" stroke-width="9.93497" stroke-linecap="round" stroke-linejoin="round"/>
<path d="M55.1928 55.4837C68.9933 55.4837 80.1807 44.2962 80.1807 30.4958C80.1807 16.6953 68.9933 5.50781 55.1928 5.50781C41.3923 5.50781 30.2048 16.6953 30.2048 30.4958C30.2048 44.2962 41.3923 55.4837 55.1928 55.4837Z" stroke="white" stroke-width="9.93497" stroke-linecap="round" stroke-linejoin="round"/>
<path d="M142.651 117.954V105.46C142.647 99.9233 140.804 94.5449 137.412 90.1691C134.02 85.7934 129.27 82.6681 123.91 81.2839" stroke="white" stroke-width="9.93497" stroke-linecap="round" stroke-linejoin="round"/>
<path d="M98.9216 6.32007C104.297 7.69629 109.061 10.8223 112.463 15.2052C115.865 19.5882 117.712 24.9788 117.712 30.5272C117.712 36.0755 115.865 41.4661 112.463 45.8491C109.061 50.232 104.297 53.358 98.9216 54.7342" stroke="white" stroke-width="9.93497" stroke-linecap="round" stroke-linejoin="round"/>
</g>
</svg>
