<svg width="92" height="92" viewBox="0 0 92 92" fill="none" xmlns="http://www.w3.org/2000/svg">
<g clip-path="url(#clip0_1_365)">
<g opacity="0.56">
<path opacity="0.56" d="M22.9095 43.542C24.6171 43.542 25.8978 44.8227 25.8978 46.5303C25.8978 48.2378 24.6171 49.5185 22.9095 49.5185C21.202 49.5185 19.9213 48.2378 19.9213 46.5303C19.9213 44.8227 21.202 43.542 22.9095 43.542Z" fill="white"/>
<path opacity="0.56" d="M46.2689 43.542C47.9765 43.542 49.2571 44.8227 49.2571 46.5303C49.2571 48.2378 47.9765 49.5185 46.2689 49.5185C44.5613 49.5185 43.2807 48.2378 43.2807 46.5303C43.2807 44.8227 44.5613 43.542 46.2689 43.542Z" fill="white"/>
<path opacity="0.56" d="M71.2903 48.6647C72.4692 47.4859 72.4692 45.5746 71.2903 44.3958C70.1115 43.217 68.2002 43.217 67.0214 44.3958C65.8426 45.5746 65.8426 47.4859 67.0214 48.6647C68.2002 49.8436 70.1115 49.8436 71.2903 48.6647Z" fill="white"/>
<path opacity="0.56" d="M25.044 66.736C26.2228 65.5572 26.2228 63.6459 25.044 62.4671C23.8652 61.2883 21.9539 61.2883 20.7751 62.4671C19.5963 63.6459 19.5963 65.5572 20.7751 66.736C21.9539 67.9148 23.8652 67.9148 25.044 66.736Z" fill="white"/>
<path opacity="0.56" d="M46.1044 61.6133C47.8119 61.6133 49.0926 62.894 49.0926 64.6016C49.0926 66.3091 47.8119 67.5898 46.1044 67.5898C44.3968 67.5898 43.1161 66.3091 43.1161 64.6016C43.1161 62.894 44.3968 61.6133 46.1044 61.6133Z" fill="white"/>
<path opacity="0.56" d="M69.1561 61.6133C70.8637 61.6133 72.1444 62.894 72.1444 64.6016C72.1444 66.3091 70.8637 67.5898 69.1561 67.5898C67.4486 67.5898 66.1679 66.3091 66.1679 64.6016C66.1679 62.894 67.4486 61.6133 69.1561 61.6133Z" fill="white"/>
<path opacity="0.56" d="M22.7672 24.3318C24.4747 24.3318 25.7554 25.6125 25.7554 27.32C25.7554 29.0276 24.4747 30.3083 22.7672 30.3083C21.0596 30.3083 19.7789 29.0276 19.7789 27.32C19.9212 25.7548 21.3442 24.3318 22.7672 24.3318Z" fill="white"/>
<path opacity="0.56" d="M46.1041 24.3316C47.8117 24.3316 49.0924 25.6123 49.0924 27.3198C49.0923 29.0274 47.8117 30.3081 46.1041 30.3081C44.3965 30.3081 43.1159 29.0274 43.1159 27.3198C42.9736 25.7546 44.3966 24.3316 46.1041 24.3316Z" fill="white"/>
<path opacity="0.56" d="M71.2903 29.5966C72.4692 28.4178 72.4692 26.5065 71.2903 25.3277C70.1115 24.1489 68.2002 24.1489 67.0214 25.3277C65.8426 26.5065 65.8426 28.4178 67.0214 29.5966C68.2002 30.7754 70.1115 30.7754 71.2903 29.5966Z" fill="white"/>
</g>
</g>
<defs>
<clipPath id="clip0_1_365">
<rect width="65" height="65" fill="white" transform="translate(0 45.9609) rotate(-45)"/>
</clipPath>
</defs>
</svg>
