<svg width="72" height="57" viewBox="0 0 72 57" fill="none" xmlns="http://www.w3.org/2000/svg">
<path d="M69.1875 0H52.5938C51.0404 0 49.7812 1.25916 49.7812 2.8125V13.2539H36C34.4467 13.2539 33.1875 14.5131 33.1875 16.0664V26.5289H19.4062C17.8529 26.5289 16.5938 27.7881 16.5938 29.3414V39.8039H2.8125C1.25916 39.8039 0 41.0631 0 42.6164V53.8594C0 55.4127 1.25916 56.6719 2.8125 56.6719H69.1875C70.7408 56.6719 72 55.4127 72 53.8594V2.8125C72 1.25916 70.7408 0 69.1875 0ZM66.375 51.0469H5.625V45.4289H19.4062C20.9596 45.4289 22.2188 44.1696 22.2188 42.6164V32.1539H36C37.5533 32.1539 38.8125 30.8946 38.8125 29.3414V18.8789H52.5938C54.1471 18.8789 55.4062 17.6197 55.4062 16.0664V5.625H66.375V51.0469Z" fill="#B91869"/>
</svg>
