<svg width="28" height="19" viewBox="0 0 28 19" fill="none" xmlns="http://www.w3.org/2000/svg">
<path fill-rule="evenodd" clip-rule="evenodd" d="M26.0919 1.42488C26.5105 1.85646 26.8078 2.39086 26.9538 2.97412C27.3437 5.13552 27.5329 7.32833 27.5191 9.52457C27.5269 11.688 27.3377 13.8476 26.9538 15.9767C26.8078 16.56 26.5105 17.0944 26.0919 17.5259C25.6732 17.9575 25.1481 18.271 24.5696 18.4346C22.4558 19 14.0004 19 14.0004 19C14.0004 19 5.54504 19 3.4312 18.4346C2.86442 18.2796 2.34722 17.9809 1.92957 17.5676C1.51192 17.1542 1.20793 16.6402 1.04699 16.075C0.657118 13.9136 0.46787 11.7208 0.48166 9.52457C0.470889 7.34474 0.660125 5.16853 1.04699 3.02328C1.19298 2.44002 1.4903 1.90562 1.90893 1.47404C2.32755 1.04247 2.85266 0.72901 3.4312 0.565329C5.54504 0 14.0004 0 14.0004 0C14.0004 0 22.4558 0 24.5696 0.51617C25.1481 0.679851 25.6732 0.993308 26.0919 1.42488ZM18.3017 9.52454L11.2351 13.5433V5.50579L18.3017 9.52454Z" fill="white"/>
</svg>
